<?xml version="1.0" encoding="UTF-8"?>
<svg id="Layer_1" xmlns="http://www.w3.org/2000/svg" version="1.1" xmlns:xlink="http://www.w3.org/1999/xlink" viewBox="0 0 1920 1080">
  <!-- Generator: Adobe Illustrator 29.5.0, SVG Export Plug-In . SVG Version: 2.1.0 Build 137)  -->
  <defs>
    <style>
      .st0 {
        fill: url(#linear-gradient2);
      }

      .st1 {
        fill: #fedfa9;
      }

      .st2 {
        fill: #b6c9dc;
      }

      .st3 {
        fill: #fff;
      }

      .st4 {
        fill: url(#linear-gradient1);
      }

      .st5 {
        fill: #b4401e;
      }

      .st6 {
        fill: #f7ad62;
      }

      .st7 {
        fill: #dd702f;
      }

      .st8 {
        fill: #f39845;
      }

      .st9 {
        fill: #fff8e3;
      }

      .st10 {
        fill: #fbc684;
      }

      .st11 {
        fill: #c85a26;
      }

      .st12 {
        fill: #feeac9;
      }

      .st13 {
        fill: #cedbe9;
      }

      .st14 {
        fill: url(#linear-gradient);
      }

      .st15 {
        fill: #da8341;
      }
    </style>
    <linearGradient id="linear-gradient" x1="-41.19" y1="115.84" x2="337.19" y2="168.31" gradientTransform="translate(599.73 373.14) scale(.52)" gradientUnits="userSpaceOnUse">
      <stop offset="0" stop-color="#fdd292"/>
      <stop offset="1" stop-color="#f9b66f"/>
    </linearGradient>
    <linearGradient id="linear-gradient1" x1="95.5" y1="220.62" x2="60.6" y2="444.92" gradientTransform="translate(599.73 373.14) scale(.52)" gradientUnits="userSpaceOnUse">
      <stop offset="0" stop-color="#fdc778"/>
      <stop offset="1" stop-color="#f7ab56"/>
    </linearGradient>
    <linearGradient id="linear-gradient2" x1="322.39" y1="224.83" x2="549.9" y2="469.36" gradientTransform="translate(599.73 373.14) scale(.52)" gradientUnits="userSpaceOnUse">
      <stop offset="0" stop-color="#eb8d45"/>
      <stop offset="1" stop-color="#cb5f2b"/>
    </linearGradient>
  </defs>
  <g id="Generative_Object">
    <path class="st14" d="M772.84,424.81c9.95,2.04,19.95,4.08,29.89,6.18l-185,42.26c-.48-.13-.89-.34-1.55-.52-22.07-5.79-44.32-11.35-66.74-15.46-.92-.82,1.15-1.44,1.55-1.55,21.79-6.17,54.85-9.01,78.33-13.4,35.09-6.57,70.07-13.87,105.13-20.61,12.8.56,25.65,3.91,38.39,3.09Z"/>
    <path class="st3" d="M742.96,657.22l255.86-67.51.52-1.03-74.47-20.1c.06-5.32-.03-10.66,0-15.98l108.99,29.37,1.03,2.06c-73.57,22.56-146.42,48.06-221.08,66.99-11.47,2.91-41.19,12.06-51.02,12.37-5.72.18-14.16-4.84-19.84-6.18Z"/>
    <path class="st13" d="M742.96,657.22l-3.86,1.03c-72.49-20.65-144.67-43.27-216.18-67.25-.59-1.79,14.61-3.63,16.49-3.61l-1.55,1.8c-2.44.41-4.96.64-7.21,1.8l211.03,64.16c44.29-13.44,88.57-27.06,132.96-40.2,18.14-5.37,52.05-11.88,67.51-19.07.39-.18,2.05-1.01,1.55-1.55l-18.81-6.18c.59-5.94-.07-13.42,0-19.58l74.47,20.1-.52,1.03-255.86,67.51Z"/>
    <path class="st12" d="M831.59,437.69l-62.61,14.43c-.87,1.23,2.22,1.37,2.83,1.55l-28.34,6.7c-2.04-.48-7.91-2.73-6.96,0-28.34,4.95-56,13.91-84.26,19.07-1.68.31-6.63,2.12-7.73,2.06-4.35-.24-21.13-6.75-26.8-8.25l185-42.26c9.63,2.04,19.23,4.6,28.86,6.7Z"/>
    <path class="st2" d="M537.85,589.2c.85-.14,1.27-.47,2.06-.52.1.57-.06,1.22,0,1.8l188.35,57.46c18.32-3.93,36.3-9.86,54.37-14.94,43.62-12.28,87.24-23.54,130.12-37.1,2.17-.69,11.57-3.31,12.11-4.64.07-1.01-.1-2.08,0-3.09l18.81,6.18c.5.54-1.15,1.36-1.55,1.55-15.46,7.19-49.37,13.7-67.51,19.07-44.38,13.13-88.66,26.76-132.96,40.2l-211.03-64.16c2.25-1.16,4.77-1.39,7.21-1.8Z"/>
    <path class="st6" d="M914.05,455.73c2.27,1.46-4.35,1.99-4.38,3.09l-59.26,11.85,3.86,2.58c-.67.06-1.41-.1-2.06,0-7.12-3.53-15.16-5.32-22.93-7.21-18.63-4.55-39.24-7.14-57.46-12.37-.61-.18-3.71-.31-2.83-1.55l62.61-14.43c27.44,6,55.27,10.97,82.45,18.04Z"/>
    <path class="st1" d="M772.84,424.81c-12.74.81-25.59-2.54-38.39-3.09-35.06,6.74-70.04,14.05-105.13,20.61-23.48,4.39-56.54,7.23-78.33,13.4-.39.11-2.46.72-1.55,1.55,22.42,4.11,44.67,9.67,66.74,15.46-2.76,1.51-5.53-1.19-6.18,3.09h-.52l-66.74-14.94,3.35,4.12-1.55,116.47-4.64-3.09c-1.04-41.99.13-84.27.77-126.26l195.83-35.04c12.19,2.18,24.21,5.24,36.33,7.73Z"/>
    <path class="st7" d="M924.87,458.82c-.12,31.25.16,62.54,0,93.79-.03,5.32.06,10.66,0,15.98-.07,6.16.59,13.65,0,19.58-.1,1.01.07,2.08,0,3.09-1.72-.64-.83-2.21-3.61-1.55.25-4.95-1.71-9.84-2.06-14.69-2.19-30.18-.79-69.27,0-99.97.12-4.55.67-9.36,1.03-13.91-1.06,2.28-1.66,2.42-3.86,3.35-4.22,1.77-54.74,14.55-57.72,14.43s-1.07-.5-2.32-2.06c.1-.92-.07-1.9,0-2.83l68.54-15.2Z"/>
    <path class="st10" d="M924.87,458.82l-68.54,15.2c-.07.93.1,1.92,0,2.83-1.44,13.01,3.1,31.53,1.03,43.8-.33.04-.77-.08-1.03,0-.98-15.22-.17-30.64-1.55-45.86-.03-.39,2.72-1.52-.52-1.55l-3.86-2.58,59.26-11.85c.03-1.1,6.65-1.64,4.38-3.09,2.02.52,10.12,1.17,10.82,3.09Z"/>
    <path class="st10" d="M544.55,581.47c-.07,3.29-2.72,5.14,0,7.73-1.75-1.24-2.89-.62-4.64-.52-.46-2.7.07-7.29,0-10.31l4.64,3.09Z"/>
    <path class="st9" d="M617.73,473.25c5.67,1.5,22.44,8.01,26.8,8.25-.08,1.01.11,2.09,0,3.09l-30.66-8.25-2.32.26c.61,2.24-.63,3.99-1.03,5.93.62-1.46-.62-5.98-.52-6.7.65-4.28,3.43-1.59,6.18-3.09.66.17,1.07.39,1.55.52Z"/>
    <path class="st6" d="M743.47,460.37c24.66,5.77,49.12,12.93,73.69,19.07-28.37,6.54-58.46,12.19-87.35,19.07-1.89.21-3.62-.77-5.41-1.03-23.26-3.39-47.62-12.96-71.12-16.49l-1.03-1.55c28.26-5.16,55.91-14.12,84.26-19.07-.95-2.73,4.92-.48,6.96,0Z"/>
    <path class="st1" d="M852.21,473.25c-8.57,1.28-17.83,2.8-26.28,4.64-3.84-.45-30.32-7.55-31.69-6.7-.89.55-.28,1.07.52,1.55,4.38,2.62,19.63,3.24,22.93,6.7h-.52c-24.57-6.14-49.04-13.3-73.69-19.07l28.34-6.7c18.22,5.23,38.83,7.81,57.46,12.37,7.77,1.9,15.81,3.68,22.93,7.21Z"/>
    <path class="st6" d="M652.26,479.43l1.03,1.55c-.61,3-6.12,1.13-7.73,3.86l1.29,1.29,74.47,16.49c-1.63,3.19-2.53,7.12-5.15,9.79l-70.34-19.58c-2.13,1.25-.03,29.34-1.8,33.5.03-.79-.69-.4-1.03-.52,1.14-13.7.05-27.54,1.55-41.23.11-1-.08-2.08,0-3.09,1.1.06,6.05-1.75,7.73-2.06Z"/>
    <path class="st15" d="M544.55,589.2c62.43,16.7,123.65,37.75,185.52,56.17.19.06.23,1.37,1.29,1.55,1.28.21,14.48-5.11,16.49-5.67,9.19-2.53,19.92-4.29,29.37-8.25h5.41c-18.07,5.09-36.05,11.02-54.37,14.94l-188.35-57.46c-.06-.59.1-1.24,0-1.8,1.75-.1,2.89-.73,4.64.52Z"/>
    <path class="st11" d="M924.87,591.26c-.54,1.33-9.94,3.95-12.11,4.64-42.88,13.56-86.5,24.82-130.12,37.1h-5.41c-9.45,3.95-20.18,5.71-29.37,8.25-2.01.56-15.21,5.88-16.49,5.67-1.06-.17-1.1-1.49-1.29-1.55l.52-.52,190.67-55.14c2.78-.67,1.89.91,3.61,1.55Z"/>
    <path class="st12" d="M852.21,473.25c.65-.1,1.39.06,2.06,0,3.24.03.48,1.16.52,1.55l-36.07,7.73c-.08-.48.12-1.14,0-1.55,1.02-1.38,5.67-2.76,7.21-3.09,8.46-1.84,17.71-3.36,26.28-4.64Z"/>
    <path class="st4" d="M609.48,475.83h.52c-.11.72,1.13,5.24.52,6.7-1.23,5.97-2.2,26.79-1.55,32.72.05.42.83-.07,1.03.77.02.08-1.47-.38-1.03,1.29l34.78,10.56c.52-.18.11-1.19.26-1.55,1.77-4.16-.32-32.24,1.8-33.5l70.34,19.58c-1.65,36.26-2.54,72.61-5.93,108.74-27.37-6.04-55.02-10.79-82.45-16.49-15.46-3.21-41.98-11.86-56.17-12.88-1.02-.07-3.21-.56-2.83,1.29l157.69,45.09c.84,1.35,2.12,3.32,3.61,4.12.04,1.01-.17,1.67.52,2.58l-.52.52c-61.87-18.42-123.09-39.47-185.52-56.17-2.72-2.59-.07-4.44,0-7.73l1.55-116.47c21.09,5.68,41.85,12.94,63.13,17.52l.26-6.7Z"/>
    <path class="st6" d="M609.48,475.83l-.26,6.7c-21.28-4.58-42.03-11.84-63.13-17.52l-3.35-4.12,66.74,14.94Z"/>
    <path class="st6" d="M854.78,474.8c1.38,15.22.57,30.65,1.55,45.86-4.58,1.3-34.67,9.82-36.59,9.02l-1.03-46.64c-.03-.17.03-.35,0-.52l36.07-7.73Z"/>
    <path class="st7" d="M856.33,520.66c.26-.08.7.04,1.03,0-.11.64.26,1.55-.26,2.06l-37.1,9.79-1.8-4.38.52-28.34c.24,1.19-1.93,2.07-2.06,2.32.02-1.76-.17-3.62,0-5.41l1.03,4.12v-10.82c-28.03,5.76-56.14,14.02-84,21.39l-4.12-6.7v-2.32c29.31-7.2,59.57-12.48,89.15-19.32l1.03,46.64c1.92.8,32.01-7.72,36.59-9.02Z"/>
    <path class="st12" d="M644.53,484.59c-1.5,13.68-.41,27.53-1.55,41.23-10.83-3.69-22.05-6.41-32.98-9.79-.2-.84-.98-.35-1.03-.77-.65-5.93.32-26.76,1.55-32.72.4-1.94,1.64-3.69,1.03-5.93l2.32-.26,30.66,8.25Z"/>
    <path class="st1" d="M818.71,480.98c.12.41-.08,1.06,0,1.55.03.17-.03.35,0,.52-29.58,6.84-59.85,12.12-89.15,19.32v2.32c-.14,44.83.11,89.68.52,134.5,0,1.02-.04,2.07,0,3.09-1.49-.81-2.76-2.78-3.61-4.12-3.41-5.44-2.73-9.16-3.09-15.72-2.24-40.23,1.43-81.32.52-121.62l-1.55.26c.67-1.3,1.61-2.22,2.06-3.61,1.79.26,3.52,1.24,5.41,1.03,28.89-6.88,58.98-12.53,87.35-19.07h.52c-.04.53,1,1.46,1.03,1.55Z"/>
    <path class="st1" d="M724.4,497.47c-.45,1.39-1.39,2.31-2.06,3.61-.3.59-.73.95-1.03,1.55l-74.47-16.49-1.29-1.29c1.61-2.74,7.12-.86,7.73-3.86,23.5,3.53,47.85,13.1,71.12,16.49Z"/>
    <path class="st12" d="M825.92,477.89c-1.54.34-6.2,1.71-7.21,3.09-.03-.09-1.07-1.02-1.03-1.55-3.3-3.46-18.55-4.08-22.93-6.7-.79-.47-1.41-.99-.52-1.55,1.38-.85,27.86,6.25,31.69,6.7Z"/>
    <path class="st6" d="M726.46,638.16l-157.69-45.09c-.37-1.85,1.82-1.36,2.83-1.29,14.19,1.03,40.72,9.67,56.17,12.88,27.44,5.7,55.09,10.45,82.45,16.49,3.39-36.13,4.27-72.47,5.93-108.74,2.62-2.67,3.52-6.6,5.15-9.79.3-.59.73-.96,1.03-1.55l1.55-.26c.91,40.3-2.76,81.38-.52,121.62.37,6.56-.32,10.28,3.09,15.72Z"/>
    <path class="st15" d="M610,516.02c10.93,3.38,22.15,6.1,32.98,9.79.34.12,1.06-.28,1.03.52-.15.35.27,1.36-.26,1.55l-34.78-10.56c-.44-1.67,1.05-1.21,1.03-1.29Z"/>
    <path class="st8" d="M733.68,511.39l1.03,123.42c-1.39,1.94-1.25,6.76-4.64,4.38-.41-44.82-.65-89.67-.52-134.5l4.12,6.7Z"/>
    <g>
      <path class="st0" d="M921.26,589.72l-190.67,55.14c-.68-.9-.48-1.57-.52-2.58s0-2.07,0-3.09c3.38,2.38,3.25-2.44,4.64-4.38l-1.03-123.42c27.86-7.36,55.97-15.62,84-21.39v10.82l-1.03-4.12c-.17,1.79.02,3.65,0,5.41-.03.06-.93.34-1.03.77-.77,3.39,1.33,16.38,1.55,20.87.02.43-.89,2.55.26,3.61.79-1.01-.28-2.71-.26-3.61.21-7.16-.58-14.43-.52-21.64.13-.25,2.3-1.13,2.06-2.32l-.52,28.34,1.8,4.38,37.1-9.79c.52-.51.15-1.42.26-2.06,2.07-12.28-2.47-30.8-1.03-43.8,1.25,1.57-.53,1.95,2.32,2.06s53.5-12.66,57.72-14.43c2.21-.93,2.8-1.07,3.86-3.35-.36,4.55-.91,9.37-1.03,13.91-.79,30.7-2.19,69.8,0,99.97.35,4.84,2.31,9.73,2.06,14.69Z"/>
      <path class="st7" d="M817.16,523.75c-.21-4.49-2.32-17.48-1.55-20.87.1-.43,1-.72,1.03-.77-.06,7.21.73,14.49.52,21.64Z"/>
      <path class="st7" d="M817.16,523.75c-.03.9,1.05,2.6.26,3.61-1.15-1.05-.24-3.17-.26-3.61Z"/>
      <g>
        <path class="st5" d="M784.44,591.26c2.88.66.3,27.65,1.29,31.69l-42,11.59-.26-32.72,40.97-10.56Z"/>
        <path class="st7" d="M782.89,592.81c.88.05,1.23-.06,1.8.77l-.52,28.86-39.42,10.56-.26-30.15,38.39-10.05Z"/>
        <g>
          <path class="st5" d="M762.8,602.08c.17-.13,1.58-.08,1.8.26.52.8.29,17.62,0,19.07-.14.73-.59,1.97-1.29,1.8-.97-2.38-1.35-20.48-.52-21.13Z"/>
          <path class="st5" d="M754.55,604.15c.93-.06,1.1.54,1.29,1.29.38,1.54.21,19.53-.77,19.84-1.08.34-1.02.03-1.29-.77-.39-1.16-.21-20.1.77-20.36Z"/>
          <path class="st5" d="M774.65,598.99c.93-.06,1.1.54,1.29,1.29.36,1.49.22,19.58-.77,19.84-.93.06-1.1-.54-1.29-1.29-.36-1.49-.22-19.58.77-19.84Z"/>
          <path class="st5" d="M768.98,600.54c1.07-.33,1.02-.03,1.29.77.29.88.26,17.21,0,18.55-.14.73-.6,1.96-1.29,1.8-1.26-2.25-1.17-20.77,0-21.13Z"/>
          <path class="st5" d="M760.22,602.6c.9-.1,1.11.57,1.29,1.29.32,1.28.51,19.21-.26,19.84l-1.8-1.8c.94-2.35-.19-19.22.77-19.32Z"/>
          <path class="st5" d="M757.13,603.63c1.18-.97,1.15.67,1.29,1.29.28,1.27.74,19.83-.77,19.84-.99-2.38-1.33-20.46-.52-21.13Z"/>
          <path class="st5" d="M766.4,601.05c1.26,0,.92,19.23.52,21.13-2.34-1.57-1.26-7.55-1.29-10.05-.01-1.24-.45-11.08.77-11.08Z"/>
          <path class="st5" d="M778.26,597.96l-1.03,21.13c.29-5.44-1.26-14.27-.26-19.32.27-1.38-.06-1,1.29-1.8Z"/>
          <path class="st5" d="M771.56,600.02c2.34,1.37,1.24,7.2,1.29,9.53.07,3.68.16,7.42-.26,11.08-2.34-1.37-1.24-7.2-1.29-9.53-.07-3.68-.16-7.42.26-11.08Z"/>
          <path class="st5" d="M751.46,605.18c2.34,1.37,1.24,7.2,1.29,9.53.07,3.68.16,7.42-.26,11.08-2.34-1.37-1.24-7.2-1.29-9.53-.07-3.68-.16-7.42.26-11.08Z"/>
          <path class="st5" d="M748.88,605.69c2.17,1.08,1.59,21.13.52,21.13l-.52-21.13Z"/>
        </g>
      </g>
    </g>
  </g>
</svg>