<?xml version="1.0" encoding="UTF-8"?>
<svg id="Layer_1" xmlns="http://www.w3.org/2000/svg" version="1.1" xmlns:xlink="http://www.w3.org/1999/xlink" viewBox="0 0 1920 1080">
  <!-- Generator: Adobe Illustrator 29.5.0, SVG Export Plug-In . SVG Version: 2.1.0 Build 137)  -->
  <defs>
    <style>
      .st0 {
        fill: url(#linear-gradient2);
      }

      .st1 {
        fill: #8ba53b;
      }

      .st2 {
        fill: #648625;
      }

      .st3 {
        fill: #9ebd16;
      }

      .st4 {
        fill: #fbd99d;
      }

      .st5 {
        fill: #f5e2c9;
      }

      .st6 {
        fill: #e5ecec;
      }

      .st7 {
        fill: #fee998;
      }

      .st8 {
        fill: #fff;
      }

      .st9 {
        fill: url(#linear-gradient1);
      }

      .st10 {
        fill: #c0693d;
      }

      .st11 {
        fill: #2162a2;
      }

      .st12 {
        fill: #f6eac6;
      }

      .st13 {
        fill: #c48146;
      }

      .st14 {
        fill: #8f3b25;
      }

      .st15 {
        fill: #de864e;
      }

      .st16 {
        fill: #517023;
      }

      .st17 {
        fill: #f7c579;
      }

      .st18 {
        fill: #adcc52;
      }

      .st19 {
        fill: #3e739f;
      }

      .st20 {
        fill: #f7b879;
      }

      .st21 {
        fill: #fbfbec;
      }

      .st22 {
        fill: #64779a;
      }

      .st23 {
        fill: #d9e88e;
      }

      .st24 {
        fill: #de9b55;
      }

      .st25 {
        fill: #fdfac4;
      }

      .st26 {
        fill: url(#linear-gradient3);
      }

      .st27 {
        fill: #a9d7f0;
      }

      .st28 {
        fill: #97542f;
      }

      .st29 {
        fill: #a4af58;
      }

      .st30 {
        fill: #94bcd2;
      }

      .st31 {
        fill: #d2ebf9;
      }

      .st32 {
        fill: #b55a39;
      }

      .st33 {
        fill: #aaabae;
      }

      .st34 {
        fill: url(#linear-gradient);
      }

      .st35 {
        fill: #5a3639;
      }
    </style>
    <linearGradient id="linear-gradient" x1="669.72" y1="511.5" x2="677.14" y2="582.31" gradientUnits="userSpaceOnUse">
      <stop offset="0" stop-color="#5690bc"/>
      <stop offset="1" stop-color="#7ca6c8"/>
    </linearGradient>
    <linearGradient id="linear-gradient1" x1="717.81" y1="378.36" x2="715.21" y2="475.01" gradientUnits="userSpaceOnUse">
      <stop offset="0" stop-color="#1f6caf"/>
      <stop offset="1" stop-color="#5899c5"/>
    </linearGradient>
    <linearGradient id="linear-gradient2" x1="723.97" y1="385.58" x2="722.89" y2="473.47" gradientUnits="userSpaceOnUse">
      <stop offset="0" stop-color="#43a8dd"/>
      <stop offset="1" stop-color="#83d3f0"/>
    </linearGradient>
    <linearGradient id="linear-gradient3" x1="838.72" y1="385.33" x2="837.5" y2="474.1" gradientUnits="userSpaceOnUse">
      <stop offset="0" stop-color="#42a7dc"/>
      <stop offset="1" stop-color="#85d4f0"/>
    </linearGradient>
  </defs>
  <g id="Generative_Object">
    <path class="st14" d="M967.42,737.63c.35,2.84.6,21.12-1.32,21.97h-371.37c-1.53-.22-4.75.06-5.27-2.2-.28-1.2.49-23.44.88-24.61.8-2.39,30.67-16.01,34.28-20.22,1.16-107.57-5.51-215.09-6.15-322.58-.05-7.55-.96-67.6,2.2-69l315.99,1.32-4.39,389.39c1.09,3.27,33.3,18.27,34.72,20.66.92,1.55.23,3.59.44,5.27Z"/>
    <g>
      <path class="st24" d="M644.84,459.88c1.51,83.91,2.85,167.86,2.64,251.83-2.36.82-5.37,7.88-6.15,8.35-2.3,1.38-9.41,1.6-10.55-.88,2.56.41,1.8-2.4,1.76-3.96-1.8-59.77-1.31-120-1.76-179.75,4.36-14.47,5.4-31.24,6.15-46.59,9.44-3.29,1.67-23.35,7.91-29.01Z"/>
      <path class="st25" d="M932.27,327.15c-28.44.94-56.8,2.07-85.26,2.64-26.85.53-53.29-1-79.99,1.76-40.55.2-82.12-3.3-122.62-.88-3.92.23-9.49.2-13.18.88-.74.14-.35,1.72-.44,1.76-.64.26-1.6-1.88-2.64-.44-.44.9,1.25,1.5.88,3.08-5.51,23.65.72,55.29,0,79.99-.97,18.92-.04,38.16,0,57.13.05,20.7,1.6,41.71,1.76,62.41.44,59.75-.05,119.98,1.76,179.75.05,1.55.8,4.37-1.76,3.96l-7.03-392.46,308.52.44Z"/>
      <path class="st17" d="M847,329.79c.29,2.05-1.64,2.7-3.08,3.52-35.81,20.51-112.96,8.24-155.58,12.31-4.09.39-10.02,1.29-12.75,4.39-7.91-.39-19.92.3-27.25-.88-.65-3.08,2.76-4.26,4.83-5.27,29.28-14.23,42.73-5.99,71.2-6.15,14.62-.09,28.85-4.73,42.63-6.15,26.7-2.75,53.14-1.22,79.99-1.76Z"/>
      <path class="st20" d="M643.96,398.35l-10.55,39.11-4.39,35.6c-.04-18.98-.97-38.22,0-57.13.81-15.68,2.94-38.57,5.27-54.06.77-5.1,2.5-10.32,3.52-15.38,1.2,1.71,5.45,3.77,6.15,6.59,2,8.02-.2,34.84,0,45.27Z"/>
      <path class="st7" d="M767.02,331.55c-13.78,1.42-28.01,6.07-42.63,6.15-28.47.17-41.92-8.08-71.2,6.15-2.08,1.01-5.48,2.2-4.83,5.27-6.44-1.03-13.46-10.16-17.58-15.82.09-.04-.3-1.62.44-1.76,3.69-.67,9.26-.65,13.18-.88,40.5-2.42,82.07,1.08,122.62.88Z"/>
      <path class="st7" d="M916.44,381.65c-2.64-.38-1.7,2.35-1.76,3.96-1.58,46.6-1.23,93.56-1.76,140.2-.17,15.23-.75,30.52-.88,45.71-.18,21.37.13,42.79,0,64.17-.11,18.36-.31,36.58-.88,54.94-.05,1.61.77,3.94-1.76,2.2-3.69-111.77,4.58-228.21,3.52-340.16,3.17,8.58,3.01,19.72,3.52,29.01Z"/>
      <path class="st20" d="M643.96,398.35c.12,6.43-.11,12.91,0,19.34-9.95,21.98-5.86,47.4-7.03,71.2-.75,15.35-1.79,32.12-6.15,46.59-.15-20.7-1.71-41.71-1.76-62.41l4.39-35.6,10.55-39.11Z"/>
      <path class="st7" d="M637.81,346.49c-1.02,5.06-2.75,10.28-3.52,15.38-2.34,15.49-4.47,38.38-5.27,54.06.72-24.7-5.51-56.34,0-79.99,3.95,2.61,6.17,6.81,8.79,10.55Z"/>
      <path class="st20" d="M644.84,459.88c-6.24,5.66,1.53,25.72-7.91,29.01,1.17-23.8-2.92-49.22,7.03-71.2.24,14.06.63,28.12.88,42.19Z"/>
      <path class="st10" d="M927.87,701.6c-.2,2.98.45,19.06-2.2,20.22-7.85,3.44-15.36-7.99-16.26-14.06,4.69.71,14.72-1.67,16.7-6.15h1.76Z"/>
      <path class="st24" d="M916.44,381.65c.94,17.41-1.27,39.77,1.76,55.82,2.33,12.34,7.62,15.44,6.15,30.76-.55,5.72-4.82,13.93-5.27,19.34-1.04,12.45,7.72,29-6.15,38.24.53-46.63.18-93.6,1.76-140.2.05-1.61-.89-4.34,1.76-3.96Z"/>
      <path class="st24" d="M912.05,635.67c.13-21.37-.18-42.79,0-64.17,3.77-2.11.41-11.82,3.52-14.5,6.2-5.35.92,14.9.88,15.82-.86,21.37,9.1,44.55-4.39,62.85Z"/>
      <g>
        <path class="st24" d="M927.87,692.81c-.15,2.9.19,5.89,0,8.79h-1.76l2.2-71.2c-5.3,23.65,5.95,60.95-18.9,74.71-.36-3.97.13-8.28,0-12.31,2.53,1.74,1.71-.59,1.76-2.2.56-18.36.77-36.57.88-54.94,13.49-18.3,3.53-41.48,4.39-62.85.04-.92,5.32-21.18-.88-15.82-3.11,2.68.25,12.39-3.52,14.5.13-15.19.71-30.48.88-45.71,13.87-9.24,5.11-25.79,6.15-38.24.45-5.41,4.72-13.61,5.27-19.34,1.47-15.32-3.83-18.43-6.15-30.76-3.02-16.04-.81-38.4-1.76-55.82-.5-9.29-.35-20.43-3.52-29.01.94-2.36,3.69-3.53,5.27-5.27,4.36-4.8,10.15-8.69,14.06-14.06,3.61,39.47.33,91.55,0,132.29-.61,75.36-.39,152-4.39,227.22Z"/>
        <path class="st24" d="M926.11,701.6c-1.98,4.48-12.01,6.87-16.7,6.15-.12-.84.08-1.78,0-2.64,24.84-13.76,13.59-51.06,18.9-74.71l-2.2,71.2Z"/>
        <path class="st24" d="M928.31,558.32l-1.76,58.89c-8.62-21.53-6.18-37.64,1.76-58.89Z"/>
      </g>
      <g>
        <path class="st24" d="M932.27,327.15c.13,2.02-.18,4.14,0,6.15-3.91,5.37-9.7,9.26-14.06,14.06l6.59-10.55c-2.52,1.6-10.57,11.8-12.31,12.31-9.07,2.64-50.97-.37-64.17,0-58.18,1.63-114.37,3.75-172.72.88,2.72-3.11,8.65-4,12.75-4.39,42.61-4.07,119.77,8.2,155.58-12.31,1.43-.82,3.36-1.47,3.08-3.52,28.46-.57,56.82-1.7,85.26-2.64Z"/>
        <polygon class="st14" points="927.43 334.18 928.75 334.62 927.43 335.94 926.99 335.5 927.43 334.18"/>
      </g>
      <g>
        <path class="st13" d="M963.03,735l-.44,20.22c-43.8.06-87.62-.08-131.41,0l-107.67-4.39,169.2-16.7c17.94-.11,35.69-.39,53.62,0,3.46.08,7.62.62,10.55-1.76,1.78.79,4.13,2.47,6.15,2.64Z"/>
        <path class="st20" d="M825.91,735c-35.88,3.38-74.77,12.35-111.19,14.94-28.79,2.05-59.13-3.37-87.02,1.76-1.77.32-6.07.79-5.71,3.52-6.68-.09-16.78.95-22.85,0-.92-2.93.88-7.49.88-9.67,36.09-9.59,73.45-1.68,109.43-4.39,10.46-.79,21.67-5.07,31.2-6.15,27.97-3.16,57.2-.19,85.26,0Z"/>
        <path class="st20" d="M926.11,724.45c5.4.6,3.78-6.51,5.71-7.03,1.41-.38,20.94,13.12,25.05,14.94-2.92,2.38-7.08,1.83-10.55,1.76.38-1.98-6.44-2.56-7.47-2.64-11.13-.84-23.14-1.42-34.28-1.76-99.31-3.03-199.1,3-298.41-.88,6.41-4.03,13.39-7.31,19.78-11.43l1.76,7.03h298.41Z"/>
        <path class="st25" d="M946.33,734.12c-17.93-.39-35.68-.11-53.62,0-22.12.14-44.77-1.2-66.8.88-28.06-.19-57.29-3.16-85.26,0l-141.08-.88c-1.78,1.27.44,9.65.44,11.43,0,2.18-1.8,6.74-.88,9.67-1.65-.26-3.16.66-4.39-1.32-.39-.84-.33-17.6,0-18.46.49-1.28,9.54-5.41,11.43-6.59,99.31,3.88,199.1-2.15,298.41.88,11.14.34,23.15.91,34.28,1.76,1.03.08,7.85.66,7.47,2.64Z"/>
        <path class="st24" d="M892.71,734.12l-169.2,16.7,107.67,4.39c-69.66.13-139.55.99-209.2,0-.36-2.73,3.95-3.19,5.71-3.52,27.89-5.13,58.23.29,87.02-1.76,36.42-2.59,75.31-11.56,111.19-14.94,22.03-2.07,44.68-.74,66.8-.88Z"/>
        <path class="st4" d="M740.65,735c-9.53,1.08-20.75,5.36-31.2,6.15-35.99,2.71-73.34-5.2-109.43,4.39,0-1.78-2.22-10.16-.44-11.43l141.08.88Z"/>
      </g>
      <g>
        <path class="st14" d="M630.78,333.3c4.12,5.66,11.14,14.79,17.58,15.82,7.33,1.18,19.34.49,27.25.88,58.35,2.87,114.54.76,172.72-.88,13.19-.37,55.1,2.64,64.17,0,1.73-.5,9.78-10.7,12.31-12.31l-6.59,10.55c-1.58,1.74-4.33,2.92-5.27,5.27,1.07,111.96-7.21,228.4-3.52,340.16.13,4.03-.36,8.33,0,12.31.08.86-.12,1.79,0,2.64.9,6.07,8.41,17.51,16.26,14.06,2.64-1.16,2-17.24,2.2-20.22s-.15-5.89,0-8.79c7.87.95.97,16.87,1.76,18.9,1.51,3.88,32.36,18.47,36.92,22.85-.44.73-2.69.51-3.52.44-2.03-.17-4.37-1.85-6.15-2.64-4.11-1.82-23.64-15.32-25.05-14.94-1.94.52-.31,7.64-5.71,7.03l-282.59-.88-2.2-3.52c.78-.47,3.79-7.53,6.15-8.35.21-83.97-1.12-167.91-2.64-251.83-.25-14.07-.64-28.13-.88-42.19-.11-6.43.12-12.91,0-19.34-.2-10.43,2-37.24,0-45.27-.7-2.83-4.96-4.88-6.15-6.59-2.62-3.74-4.84-7.94-8.79-10.55.37-1.58-1.32-2.17-.88-3.08,1.04-1.44,2,.7,2.64.44Z"/>
        <g>
          <path class="st32" d="M650.55,352.64l254.46,1.32c-4.16.45-11.05,12.19-13.62,12.75-4.85,1.05-29.93-1.09-37.8-.88-60.14,1.61-126.45.41-189.86,0l-13.18-13.18Z"/>
          <path class="st20" d="M906.78,390.44c-.59,105.58,1.51,211.27-.88,316.87-2.48.09-4.59-4.24-6.15-5.71,1.89-66.37-.06-133.06,0-199.53,0-5.84,0-11.73,0-17.58.03-32.31,2.48-64.8,0-97.13l7.03,3.08Z"/>
          <path class="st32" d="M660.66,530.2l-9.67,39.55c-.84-71.6-4.24-143.28-3.52-214.91l1.76-.88c.58,3.2,12.16,10.59,12.31,11.43.29,1.68-2.53,1.51-2.64,2.64-3,32.48.56,74.53.88,108.11.16,16.85.7,36.52.88,54.06Z"/>
          <path class="st20" d="M772.29,699.84c1.43,0,2.97,0,4.39,0,1.09,0,3.81.87,6.15.88s3.33-.88,3.52-.88c1.99,0,2.95-.88,3.52-.88.09,0-.28,1.75.44,1.76,34.41.24,68.86,1.8,103.28,0,2.49,1.84,6.45,7.09,8.79,9.67l-230.73-.88c3.61-2.18,9.07-3.61,13.18-4.39,11.99-2.29,30.16-4.07,42.63-5.27,1.59-.15,1.93-.81,2.64-.88-.38,2.64,2.35,1.7,3.96,1.76,12.79.43,25.56-.85,38.24-.88Z"/>
          <path class="st10" d="M903.26,711.26c.89,1,11.28,8.9,8.35,10.55l-266.33-.88c3.59-5.13,12.91-6.29,18.9-9.67h239.08Z"/>
          <path class="st15" d="M660.66,530.2c.56,55.5,1.34,111.03.88,166.57l-10.55,10.55c-.4-45.84.54-91.73,0-137.56l9.67-39.55Z"/>
          <path class="st10" d="M899.74,502.07c-.06,66.47,1.89,133.15,0,199.53-2.45-2.3-5.16-5.15-7.91-7.03v-192.5c2.6.2,5.3-.14,7.91,0Z"/>
          <path class="st15" d="M727.46,699.84c-12.47,1.2-30.64,2.98-42.63,5.27-4.11.79-9.58,2.22-13.18,4.39l230.73.88c.24.26.56.53.88.88h-239.08c.34-.19,2.99.06,2.2-1.76-2.45-.39-9.29,1.38-9.23-2.2,1.76-.92,7.11-8.09,7.91-8.35,11.18-3.58,48.65,2.02,62.41.88Z"/>
          <path class="st10" d="M906.78,390.44l-7.03-3.08c2.48,32.33.03,64.82,0,97.13-2.4-1.42-5.28-.88-7.91-.88v-113.39c8.12-2.25,9-12.92,16.7-11.87,1.64,10.49-1.7,22.23-1.76,32.08Z"/>
          <path class="st25" d="M890.07,698.08c1.71.11,2.8,2.11,3.52,2.64-34.42,1.8-68.87.24-103.28,0-.72,0-.35-1.76-.44-1.76v-.88h100.2Z"/>
          <path class="st33" d="M788.11,369.34l-.88.88h-.88l-.88-.88c.88,0,1.75,0,2.64,0Z"/>
          <g>
            <path class="st15" d="M785.48,369.34l.88.88v116.9l111.63.88c1.24,1.83,1.7,10.48-.44,11.43l-111.19.88c2.12,20.87-2.84,47.51,0,67.68.12.88.92.98.88,1.76-3.11,1.09-1.44,2.78-1.76,6.15s.88,2.5.88,2.64c0,1.2-.04,2.25,0,3.52.25,7.33.26,14.66.88,21.97-1.3,22.93,0,45.69,0,68.56,0,8.9-1.82,18.23-.88,27.25-.18,0-1.27.89-3.52.88,2.77-53.66-.82-109.55,1.76-164.81l-2.2-2.2-2.2,33.4-2.64-4.39c.79-64.69-1.81-129.58,0-194.25,2.61,0,5.67.87,7.91.88Z"/>
            <path class="st34" d="M682.64,503.83c-.96,29.26.89,58.69.88,87.9,0,.1-.87-.44-.88,1.76-.02,3.22.73,7.73-.88,10.55-6.44-4.89-8.26-5.26-16.7-6.15-.08-31.36-.95-62.69-.88-94.05,6.09.88,12.6-.15,18.46,0Z"/>
            <path class="st19" d="M883.92,379.01l-93.17.44,1.32,103.28h91.41c2.18-1.55,1.1-4,1.32-6.15l2.64-106.36c2.15-.15,1.66.89,1.76.88,1.84,37.1-2.85,75.58.88,112.51.15,1.46-.51,1.57-.88,2.64l-102.84.88v-116.9h.88l3.96,7.03h92.29l.44,1.76Z"/>
            <path class="st24" d="M777.57,368.46c-1.81,64.68.79,129.57,0,194.25-.17,13.6.46,37.43-2.64,49.66-.5,1.97,1.2,3.57-2.64,3.08-.22-38.37-.51-76.81-1.76-115.15v-.88c9.87-4.96-2.59-4.74-.88-10.55.82-.2,2.02.44,2.64-.44.96-1.72-.88-4.59-.88-4.83.84-38.36,1.19-76.76.88-115.15,1.75,0,3.52,0,5.27,0Z"/>
            <path class="st15" d="M769.66,488.88c-1.71,5.81,10.75,5.59.88,10.55h-107.67c-2.04-.9-2.29-10.91.44-12.31-.38,2.64,2.35,1.7,3.96,1.76,18.87.64,88.37,3.47,102.4,0Z"/>
            <path class="st19" d="M768.78,501.19c-.18,55.86-1.96,112.03-.88,167.88-1.23-.1-2.3-.59-3.52-.88-.28-.07-.6.06-.88,0,.57-2.1,1.39-3.79-.88-5.27.85-3.17,1.26-2.69,0-6.15,1.42.71,1.73-2.67,1.76-3.08,1.48-19.29-.01-39.95,0-59.33,0-3.07-.88-1.59-.88-1.76,0-1.27.88-3.44.88-4.39,0-12.58.1-25.21,0-37.8-.12-15.51.45-31.08-.44-46.59-27.08,1.96-54.23.71-81.31,0-5.86-.15-12.36.88-18.46,0l.44-1.76,104.16-.88Z"/>
            <path class="st11" d="M887.44,370.22l-2.64,106.36c3.15-30.75-2.37-66.39-.88-97.57l-.44-1.76h-92.29l-3.96-7.03.88-.88c32.16.08,67.44,3.05,99.32.88Z"/>
            <path class="st21" d="M772.29,615.46c.16,27.52,0,55.1,0,82.62-3.23,1.53-2.33-.85-3.52-.88.78-9.38-.7-18.83-.88-28.13-1.08-55.85.7-112.02.88-167.88l1.76-.88c1.25,38.33,1.54,76.78,1.76,115.15Z"/>
            <path class="st4" d="M891.83,502.07v192.5c-.46-.32-1.18-.74-1.76-.88-1.34-31.3-.66-63.56-.88-94.93-.02-3.21.02-6.46,0-9.67-.22-28.96-.57-58.1.88-87.02.57.06,1.18-.05,1.76,0Z"/>
            <path class="st4" d="M891.83,370.22v113.39h-1.76c-3.73-36.93.96-75.41-.88-112.51.43-.05,1.68-.62,2.64-.88Z"/>
            <g>
              <path class="st9" d="M768.78,370.22l1.76,115.15c-.2.21-.6,1.48-1.32,1.76h-105.04l-1.76-116.46c35.35-3.2,70.99-.54,106.36-.44Z"/>
              <path class="st21" d="M772.29,368.46c.31,38.39-.04,76.78-.88,115.15.5,1.66-.54,1.41-.88,1.76l-1.76-115.15c.2,0-.03-1.77,3.52-1.76Z"/>
              <path class="st5" d="M769.66,488.88c-14.03,3.47-83.53.64-102.4,0-1.61-.05-4.34.89-3.96-1.76.2-.1.57.07.88,0h105.04c.71-.28,1.12-1.55,1.32-1.76.34-.35,1.38-.1.88-1.76,0,.25,1.84,3.11.88,4.83-.62.88-1.82.24-2.64.44Z"/>
              <path class="st0" d="M683.52,451.09c23.61,3.89,48.52,4.04,72.08-.44l-9.23-.44c4.02-5.43,2.25-13.59-4.39-15.82-2.31-.78-9.22.18-9.67,0-1.56-.63-.5-8.31-8.79-9.67-5.67-.93-17.69,2.64-20.66,7.47-3.92,6.41-.34,9.48-11.43,13.18-.17,3.36,19.82,1.73,22.41,2.2,1.26.23,3.08-.47,1.76,1.76l-32.08.88c-.18-8.14-4.33-70.35-.44-72.08h80.87l1.32,103.28-82.18,1.32c-1.87-1.33.53-27.69.44-31.64Z"/>
              <path class="st8" d="M683.52,451.09c0-.29,0-.59,0-.88l32.08-.88c1.32-2.23-.5-1.53-1.76-1.76-2.59-.47-22.59,1.16-22.41-2.2,11.08-3.7,7.5-6.78,11.43-13.18,2.96-4.83,14.99-8.4,20.66-7.47,8.29,1.36,7.23,9.04,8.79,9.67.45.18,7.36-.78,9.67,0,6.64,2.23,8.42,10.4,4.39,15.82l9.23.44c-23.56,4.48-48.47,4.33-72.08.44Z"/>
            </g>
            <path class="st19" d="M890.07,502.07c-1.45,28.92-1.09,58.06-.88,87.02-1.74.1-3.54-.14-5.27,0,1.56-4.3.86-9.52.88-14.06,0-.58,0-1.18,0-1.76.09-23.05,1.03-46.48-1.32-69.44l-92.29.88c-1.03,20.23.44,40.42.44,60.65v1.76c-.77,0-3.48,1.7-5.27.88-2.84-20.17,2.12-46.82,0-67.68,34.49.9,69.65-1.99,103.72,1.76Z"/>
            <path class="st24" d="M782.84,700.72c-2.35-.01-5.06-.88-6.15-.88l3.52-132.73,2.2-33.4,2.2,2.2c-2.58,55.26,1.01,111.15-1.76,164.81Z"/>
            <path class="st24" d="M780.2,567.11l-3.52,132.73c-1.42,0-2.97,0-4.39,0v-1.76c0-27.52.16-55.1,0-82.62,3.84.5,2.14-1.11,2.64-3.08,3.09-12.23,2.47-36.06,2.64-49.66l2.64,4.39Z"/>
            <path class="st22" d="M792.51,582.05c0,.57.09,1.21,0,1.76-3.6,21.74.15,49.8,0,72.08-.82,1.6-.69,1.83-.88,3.52-.23,2.06-.73,6.82,1.76,6.15-.53,2.08-3.37,6.23-3.52,7.03h-2.64c0-22.87-1.3-45.63,0-68.56.32-5.57-.9-23.67,5.27-21.97Z"/>
            <path class="st12" d="M818.88,569.75v3.52c-10.19,6.09-22.39-2.38-33.4,2.64.31-3.38-1.35-5.06,1.76-6.15,2.23-.79,8.28,1.68,7.91-1.76,7.89.46,15.89.77,23.73,1.76Z"/>
            <path class="st14" d="M891.83,483.61c2.63,0,5.51-.54,7.91.88,0,5.85,0,11.74,0,17.58-2.61-.14-5.31.2-7.91,0-.57-.05-1.19.06-1.76,0-34.07-3.75-69.23-.85-103.72-1.76l111.19-.88c2.14-.95,1.68-9.6.44-11.43-2.12-3.13-5.21-1.35-8.79-1.76.37-1.06,1.03-1.18.88-2.64h1.76Z"/>
            <path class="st5" d="M889.2,486.25c3.58.41,6.67-1.37,8.79,1.76l-111.63-.88,102.84-.88Z"/>
            <path class="st24" d="M818.88,573.26v3.52c-1.24.26-3.3,3.24-4.83,3.52-5.37.97-11.26-2.25-19.78-.88.22-3.63-5.08.19-7.91-.88,0-.14-1.2.79-.88-2.64,11.01-5.02,23.21,3.45,33.4-2.64Z"/>
            <path class="st14" d="M789.87,672.59c-.36,2.02.19,4.82,0,7.03-.52,6.14.31,12.28,0,18.46v.88c-.56,0-1.52.89-3.52.88-.94-9.01.88-18.35.88-27.25h2.64Z"/>
            <path class="st35" d="M792.51,580.3v1.76c-6.17-1.69-4.96,16.4-5.27,21.97-.62-7.32-.63-14.64-.88-21.97,1.92-1.82,4.35-1.25,6.15-1.76Z"/>
            <path class="st28" d="M794.27,579.42c-2.1.34-1.66.85-1.76.88-1.8.5-4.23-.06-6.15,1.76-.04-1.27,0-2.31,0-3.52,2.83,1.07,8.13-2.75,7.91.88Z"/>
            <path class="st35" d="M795.15,567.99c.37,3.44-5.68.97-7.91,1.76.04-.77-.76-.88-.88-1.76,1.79.82,4.5-.88,5.27-.88.18,0,1.56.76,3.52.88Z"/>
            <path class="st25" d="M772.29,698.08v1.76c-12.68.03-25.44,1.31-38.24.88-1.61-.05-4.34.89-3.96-1.76,12.31-1.13,26.38-2.02,38.67-1.76,1.18.03.28,2.41,3.52.88Z"/>
            <path class="st27" d="M764.38,550.41c-20.63-9.47-37.41,6.36-40.87,26.37-10.9-5.81-23.88,2.68-31.2,10.99l72.08.44c0,.96-.88,3.13-.88,4.39l-79.99-.88c.01-29.21-1.84-58.64-.88-87.9,27.08.71,54.22,1.96,81.31,0,.89,15.5.32,31.07.44,46.59Z"/>
            <path class="st31" d="M764.38,594.36c-.01,19.38,1.48,40.04,0,59.33-.03.41-.34,3.78-1.76,3.08-5.12-14.07-13.86,4.68-15.38,5.27-1.7.67-1.21-1.76-1.32-1.76v-.88c4.23-2.41,5.05-9.24,3.52-13.62-2.11-6.01-10.39-7.85-12.31-10.55-2.15-3.03-1.13-9.27-7.47-12.75-6.52-3.57-17.54-1.09-19.34-1.76-.8-.3-5.06-10.91-11.43-12.31-3.78-.83-11.29,1.5-13.18.88-.75-.25-2.81-4.41-3.96-5.27,1.61-2.82.86-7.32.88-10.55l81.74.88Z"/>
            <path class="st8" d="M763.5,592.6c0,.17.88-1.31.88,1.76l-81.74-.88c.01-2.2.88-1.66.88-1.76l79.99.88Z"/>
            <path class="st8" d="M764.38,550.41c.1,12.58,0,25.21,0,37.8l-72.08-.44c7.33-8.31,20.3-16.8,31.2-10.99,3.46-20.01,20.24-35.84,40.87-26.37Z"/>
            <path class="st27" d="M884.8,573.26l-65.92-.88v-2.64l61.53.44c-2.04-6.86-5.01-12.34-11.87-15.38-3.31-1.47-6.7.12-7.03,0-1.71-.59-4.33-11.46-6.59-14.5-9.28-12.51-28.37-8.15-36.04,3.52-2.01,3.06-4.93,15.13-5.71,15.38-2.98.98-17.02-2.55-21.53,6.15,0-20.23-1.47-40.42-.44-60.65l92.29-.88c2.35,22.96,1.41,46.39,1.32,69.44Z"/>
            <path class="st31" d="M884.8,575.02c-.02,4.55.68,9.77-.88,14.06-12.54,1.01-17.79,10.97-19.78,11.43-1.82.42-8.29-1.22-13.18,0-7.74,1.93-10.71,9.37-11.43,9.67-2.69,1.14-8.51-.73-14.06,2.64-8.67,5.25-6.13,13.5-8.35,18.9-.61,1.49-8.04,4.23-10.55,7.03-2.83,3.17-5.07,12.17-5.71,12.75-.37.33-6.34.44-8.35,4.39.15-22.28-3.6-50.34,0-72.08,9.53-1.62,27.83,6.18,28.13-7.91,17.67-3.09,45.46,1.34,64.17-.88Z"/>
            <path class="st8" d="M818.88,569.75c-7.84-.99-15.84-1.29-23.73-1.76-1.96-.11-3.33-.88-3.52-.88v-1.76c4.52-8.7,18.56-5.18,21.53-6.15.78-.26,3.7-12.32,5.71-15.38,7.67-11.67,26.76-16.03,36.04-3.52,2.26,3.05,4.89,13.91,6.59,14.5.33.12,3.73-1.47,7.03,0,6.85,3.05,9.83,8.53,11.87,15.38l-61.53-.44Z"/>
            <path class="st8" d="M884.8,573.26c0,.58,0,1.18,0,1.76-18.7,2.22-46.49-2.21-64.17.88-1.39.24-.75.67-1.76.88v-4.39l65.92.88Z"/>
            <path class="st30" d="M820.64,575.9c-.3,14.1-18.6,6.29-28.13,7.91.09-.55,0-1.19,0-1.76v-1.76c.09-.03-.34-.54,1.76-.88,8.52-1.37,14.41,1.84,19.78.88,1.54-.28,3.59-3.26,4.83-3.52,1.01-.21.37-.64,1.76-.88Z"/>
            <g>
              <path class="st2" d="M889.2,598.76c.21,31.37-.46,63.63.88,94.93.08,1.95,1.62,2.38,0,4.39h-100.2c.31-6.18-.52-12.32,0-18.46l7.03-4.83c-1.86,4.76-.46,8.95,0,13.62.06.63-2.11,4.47-.44,6.15l47.46,1.76,3.08-8.35c-1.85-3.06-3.74-1.7-6.15-2.2l3.52-9.23c-6.4-3.94-7.85,2.43-11.43-4.83,1.61-.95,2.65-.02,3.52,0,4.05.1,10.41-1.81,10.99-1.76.82.07,8.38,5.59,10.55,6.15,25.86,6.67,30.61-8.14,27.69-30.32-9.22-.84-19.29-.97-27.25-6.15,31.68,9.23,28.65-20.06,26.37-41.75,1.55-.33,3.07.02,4.39.88Z"/>
              <path class="st16" d="M681.76,604.03c1.14.87,3.2,5.03,3.96,5.27,1.9.62,9.4-1.71,13.18-.88,6.37,1.4,10.62,12.01,11.43,12.31,1.8.67,12.82-1.82,19.34,1.76,6.34,3.48,5.32,9.71,7.47,12.75,1.91,2.69,10.2,4.54,12.31,10.55,1.54,4.39.71,11.21-3.52,13.62,1.32-2.33-.08-3.63,0-5.27.72-15.02-2.79-8.23-9.67-14.94-5.4-5.27-1.17-14.03-14.5-15.82-3.01-.4-12.57,1.11-13.18.88-1.69-.65-3.69-13.59-14.94-13.18-4.18.15-5.69,5.47-10.99,0-.68-.71-1.02-4.23-3.96-6.15-3.61-2.36-8.57-2.89-12.75-2.64,0-1.51-.87-2.33-.88-4.39,8.44.89,10.26,1.26,16.7,6.15Z"/>
              <path class="st2" d="M675.6,610.18l-3.52,27.25c-.91-1.61-2.75-4.31-4.39-3.52-.3-6.21-1.15-12.43-2.64-18.46,0-2.19.88-5.42.88-6.15,3.4-2.28,6.5-.07,9.67.88Z"/>
              <path class="st29" d="M682.64,611.06c-.76-.09-.8.22-.88.88-1.97-.88-4.08-1.14-6.15-1.76-3.16-.95-6.27-3.16-9.67-.88,0-2.33.01-4.73,0-7.03,4.18-.25,9.13.28,12.75,2.64,2.93,1.92,3.27,5.45,3.96,6.15Z"/>
              <path class="st1" d="M836.46,671.71c-3.43-14.49-11.59-15.7-24.61-13.18-.69-5.16-1.16-8.95,1.76-13.62,2.36-3.77,8.91-5.97,9.67-7.03,2.62-3.65.76-11.56,8.35-16.26,5-3.09,10.02-1.56,10.55-1.76,1.45-.54,6.28-10.17,11.43-12.31,7.45-3.09,12.97.35,15.82,0,.9-.11,10.7-8.68,15.38-9.67,2.28,21.69,5.31,50.99-26.37,41.75,7.96,5.18,18.03,5.31,27.25,6.15,2.93,22.19-1.83,36.99-27.69,30.32-2.16-.56-9.73-6.09-10.55-6.15-.57-.05-6.93,1.85-10.99,1.76Z"/>
              <path class="st18" d="M807.45,664.68c-.7.69-6.54,10.62-4.83,11.43,8.22-10.06,17.33-13.5,29.45-7.03.96,1.63.65,2.16.88,2.64,3.58,7.27,5.02.89,11.43,4.83l-3.52,9.23c-6.61-1.37-5.9,2.54-10.99,3.52-6.86,1.32-10.95-2.56-12.31-2.64s-5.62,4.17-11.43,2.64c-5.16-1.37-.84-6.41-9.23-.88-.46-4.68-1.86-8.87,0-13.62l-7.03,4.83c.19-2.21-.36-5.02,0-7.03.14-.8,2.99-4.95,3.52-7.03.02-.06.71.31.88-.88,3.12,4.1,8.74-1.33,13.18,0Z"/>
              <path class="st3" d="M840.85,685.77c2.41.5,4.3-.87,6.15,2.2l-3.08,8.35-47.46-1.76c-1.67-1.68.5-5.52.44-6.15,8.39-5.53,4.07-.49,9.23.88,5.81,1.54,10.05-2.72,11.43-2.64s5.44,3.95,12.31,2.64c5.09-.98,4.38-4.89,10.99-3.52Z"/>
              <path class="st1" d="M681.76,611.94c-1.16,9.75,6.47,4.82,13.62,7.03,4.92,1.52,9.34,9.4,10.55,9.67,5.03,1.1,12.58-1.72,20.22,2.64,4.73,2.7,5.79,8.79,7.47,10.55,3.64,3.8,9.93,6.48,12.31,12.31-.08,1.64,1.32,2.94,0,5.27v.88c-4.38-.07-8.94-1.22-12.75-.88-5.48.5-7.32,6.71-13.18,0,4.64,12.86-1.63,10.86-10.99,14.94-14.16,6.18-30.21,8.17-39.55-7.91-4.21-7.24-1.68-9.89-1.76-14.94,8.32,11.85,20.53,11.83,30.76,2.2-10.9-1.46-17.74-.94-24.61-10.55-.19-.27-1.26-4.84-1.76-5.71l3.52-27.25c2.08.62,4.18.88,6.15,1.76Z"/>
              <path class="st18" d="M761.74,667.32c.1.02-.28.48,1.76.88.28.06.6-.07.88,0-.1,3.06.13,6.16,0,9.23-.05,1.07-1.72-1.08-1.76,0-.08,2.36,4.62,5.22,0,10.11-4.21,4.46-5.81-2.64-7.47-2.64-.52,0-3.57,4.15-4.39,4.39-4.08,1.22-9.04-1.79-9.67-1.76-4.8.24-7.92,2.46-14.06,1.76-1.67-.19-6.12-3.39-7.03-3.52-1.54-.21-1.73,1.74-3.52,1.76-.71,0-.35-1.77-.44-1.76-8.92-15.74,5.7-8.92,6.59-9.67.25-.21.66-3.77,2.2-6.15,11.08-3.48,20.77-1.74,29.45,6.15.05-2.09-3.58-7.69-4.83-8.79,1.81-2.27,8.91-.63,12.31,0Z"/>
              <path class="st2" d="M709.01,674.35c2.14,2.44.22,4.77,0,6.59-.06.52,2.33.15,1.76,1.76-.36,1.02-5.13,3.12-5.27,3.52-.12.31,2.69,5.2-.44,6.59-4.51,2-28.48-1.51-35.16,0l-.44-26.37c9.35,16.08,25.4,14.09,39.55,7.91Z"/>
              <path class="st3" d="M762.62,687.53l1.32,7.03h-53.18c0-.29-.02-.59,0-.88.37-5.12-4.32-6.31,5.27-7.91.09-.01-.27,1.77.44,1.76,1.79-.02,1.97-1.97,3.52-1.76.91.13,5.36,3.33,7.03,3.52,6.14.7,9.26-1.52,14.06-1.76.63-.03,5.59,2.97,9.67,1.76.82-.24,3.87-4.39,4.39-4.39,1.66,0,3.26,7.09,7.47,2.64Z"/>
              <path class="st2" d="M672.09,637.43c.49.87,1.56,5.44,1.76,5.71,6.87,9.6,13.71,9.09,24.61,10.55-10.24,9.63-22.45,9.65-30.76-2.2-.09-5.79.28-11.77,0-17.58,1.65-.79,3.48,1.91,4.39,3.52Z"/>
              <path class="st25" d="M749.44,667.32c1.26,1.1,4.88,6.7,4.83,8.79-8.68-7.89-18.36-9.64-29.45-6.15,6.03-9.31,16.72-9.57,24.61-2.64Z"/>
              <g>
                <path class="st16" d="M667.69,633.91c.28,5.81-.09,11.79,0,17.58.08,5.05-2.45,7.71,1.76,14.94l.44,26.37c6.67-1.51,30.65,2,35.16,0,3.13-1.39.32-6.28.44-6.59.15-.4,4.91-2.5,5.27-3.52.57-1.61-1.82-1.24-1.76-1.76.22-1.82,2.14-4.15,0-6.59,9.36-4.09,15.63-2.08,10.99-14.94,5.87,6.71,7.7.5,13.18,0,3.8-.35,8.36.81,12.75.88.11,0-.38,2.42,1.32,1.76,1.52-.6,10.27-19.35,15.38-5.27,1.26,3.46.85,2.98,0,6.15-.36,1.35-1.44,2.48-.88,4.39-3.39-.63-10.5-2.27-12.31,0-7.9-6.93-18.59-6.67-24.61,2.64-1.54,2.38-1.95,5.94-2.2,6.15-.9.75-15.51-6.07-6.59,9.67-9.59,1.6-4.91,2.79-5.27,7.91h-44.39c-.6.43-.66,2.51-.44,3.08,1.1,2.9,39.7.79,45.27.44.57-.22-.44-1.13-.44-2.64h53.18l-1.32-7.03c4.62-4.89-.08-7.75,0-10.11.04-1.08,1.71,1.07,1.76,0,.13-3.07-.1-6.17,0-9.23,1.21.29,2.28.78,3.52.88.18,9.3,1.66,18.75.88,28.13-12.29-.27-26.37.63-38.67,1.76-.7.06-1.05.73-2.64.88-13.75,1.14-51.23-4.45-62.41-.88-.05-27.82.06-55.68,0-83.5,1.49,6.03,2.33,12.25,2.64,18.46Z"/>
                <path class="st16" d="M710.76,693.68c-.02.29,0,.59,0,.88,0,1.51,1.01,2.42.44,2.64-5.57.35-44.16,2.46-45.27-.44-.22-.57-.16-2.65.44-3.08h44.39Z"/>
                <path class="st18" d="M756.91,655.01c3.08-.25,3.98,8.6,3.52,8.79l-9.23-2.2c1.56-.84,4.55-6.5,5.71-6.59Z"/>
                <path class="st8" d="M763.5,668.19c-2.03-.4-1.66-.86-1.76-.88-.56-1.92.52-3.05.88-4.39,2.27,1.48,1.44,3.17.88,5.27Z"/>
              </g>
              <path class="st23" d="M736.25,639.19l-2.64,2.64c-1.68-1.76-2.74-7.85-7.47-10.55-7.64-4.36-15.19-1.53-20.22-2.64-1.21-.27-5.63-8.15-10.55-9.67-7.15-2.21-14.78,2.72-13.62-7.03.08-.66.12-.97.88-.88,5.3,5.47,6.81.15,10.99,0,11.26-.41,13.25,12.54,14.94,13.18.62.24,10.17-1.28,13.18-.88,13.34,1.79,9.1,10.56,14.5,15.82Z"/>
              <path class="st29" d="M745.92,654.13c-2.37-5.83-8.66-8.5-12.31-12.31l2.64-2.64c6.88,6.71,10.39-.07,9.67,14.94Z"/>
              <path class="st23" d="M884.8,597.88c-4.68.99-14.48,9.56-15.38,9.67-2.86.35-8.37-3.09-15.82,0-5.15,2.13-9.98,11.76-11.43,12.31-.52.2-5.55-1.34-10.55,1.76-7.59,4.7-5.73,12.62-8.35,16.26-.76,1.06-7.31,3.26-9.67,7.03-2.92,4.67-2.45,8.47-1.76,13.62-1.09.21-2,1.81-2.2,1.76-5.02-1.36-5.01-11-3.08-15.38,2.94-6.65,12.8-8.92,13.18-9.67,1.97-3.87.23-16.94,9.23-20.66,6.59-2.72,12.63,1.29,13.18.88,1.06-.78,1.13-10.45,10.55-12.31,3.61-.71,12.76,1.29,14.06.88,1.12-.35,11.3-16.16,18.9-10.99.32,1.63-1.11,2.67-.88,4.83Z"/>
              <path class="st25" d="M832.06,669.07c-12.12-6.47-21.23-3.03-29.45,7.03-1.7-.8,4.13-10.74,4.83-11.43,9.48-9.29,18.53-5.93,24.61,4.39Z"/>
              <g>
                <path class="st16" d="M883.92,589.09c1.73-.14,3.54.1,5.27,0,.02,3.21-.02,6.46,0,9.67-1.33-.85-2.84-1.21-4.39-.88-.23-2.17,1.2-3.21.88-4.83-7.6-5.18-17.78,10.63-18.9,10.99-1.3.41-10.46-1.59-14.06-.88-9.42,1.86-9.49,11.52-10.55,12.31-.55.41-6.59-3.6-13.18-.88-9,3.72-7.26,16.79-9.23,20.66-.38.75-10.25,3.01-13.18,9.67-1.94,4.38-1.94,14.03,3.08,15.38.2.05,1.1-1.55,2.2-1.76,13.02-2.52,21.18-1.31,24.61,13.18-.86-.02-1.91-.95-3.52,0-.23-.47.08-1-.88-2.64-6.08-10.32-15.14-13.69-24.61-4.39-4.44-1.33-10.07,4.1-13.18,0,.25-1.72-.07-5.45-2.64-5.27.18-1.68.06-1.91.88-3.52,2.01-3.95,7.98-4.06,8.35-4.39.64-.57,2.88-9.57,5.71-12.75,2.5-2.8,9.94-5.54,10.55-7.03,2.22-5.4-.32-13.65,8.35-18.9,5.56-3.37,11.37-1.49,14.06-2.64.71-.3,3.69-7.74,11.43-9.67,4.89-1.22,11.36.42,13.18,0,1.99-.46,7.23-10.42,19.78-11.43Z"/>
                <path class="st6" d="M794.27,664.68c-.17,1.19-.86.82-.88.88-2.49.67-1.98-4.09-1.76-6.15,2.56-.18,2.89,3.55,2.64,5.27Z"/>
                <path class="st18" d="M798.22,655.01l6.59,4.83c-6.74,3.67-12.72,4.04-6.59-4.83Z"/>
              </g>
            </g>
            <g>
              <path class="st26" d="M883.92,379.01c-1.5,31.17,4.03,66.81.88,97.57-.22,2.15.86,4.6-1.32,6.15h-91.41l-1.32-103.28,93.17-.44Z"/>
              <path class="st8" d="M834.26,420.32c16.83-2.42,16.52,13.76,18.46,14.94,2.93,1.78,18.39-1.47,18.9,11.87l-69.88.44c.51-2.28,5.18-5.41,7.03-6.15,3.21-1.29,9.21-.72,9.67-.88,1.27-.45,3.04-18.38,15.82-20.22Z"/>
              <path class="st6" d="M796.46,450.21c26.28.14,52.42.59,78.67.44l-39.11,1.32-39.55-1.76Z"/>
            </g>
          </g>
        </g>
      </g>
    </g>
  </g>
</svg>