<?xml version="1.0" encoding="UTF-8"?>
<svg id="Layer_1" xmlns="http://www.w3.org/2000/svg" version="1.1" xmlns:xlink="http://www.w3.org/1999/xlink" viewBox="0 0 1920 1080">
  <!-- Generator: Adobe Illustrator 29.5.0, SVG Export Plug-In . SVG Version: 2.1.0 Build 137)  -->
  <defs>
    <style>
      .st0 {
        fill: #eb7156;
      }

      .st1 {
        fill: #2c2b28;
      }

      .st2 {
        fill: #e6d2d7;
      }

      .st3 {
        fill: #fdb88f;
      }

      .st4 {
        fill: #e82c89;
      }

      .st5 {
        fill: #b92251;
      }

      .st6 {
        fill: #5e1609;
      }

      .st7 {
        fill: #c47ad6;
      }

      .st8 {
        fill: #235172;
      }

      .st9 {
        fill: #a051b6;
      }

      .st10 {
        fill: #f4f7e9;
      }

      .st11 {
        fill: #e6295f;
      }

      .st12 {
        fill: #72a200;
      }

      .st13 {
        fill: #eac89e;
      }

      .st14 {
        fill: #f75a86;
      }

      .st15 {
        fill: #96481b;
      }

      .st16 {
        fill: #c01f1c;
      }

      .st17 {
        fill: #b3b1b0;
      }

      .st18 {
        fill: #813b1d;
      }

      .st19 {
        fill: #2b231e;
      }

      .st20 {
        fill: #1eb0a7;
      }

      .st21 {
        fill: #c7cfd5;
      }

      .st22 {
        fill: #c5c7c3;
      }

      .st23 {
        fill: #f04e9b;
      }

      .st24 {
        fill: #2b8885;
      }

      .st25 {
        fill: #76716d;
      }

      .st26 {
        fill: #3f3e3e;
      }

      .st27 {
        fill: #e5926e;
      }

      .st28 {
        fill: #504b47;
      }

      .st29 {
        fill: #26969b;
      }

      .st30 {
        fill: #f0a32d;
      }

      .st31 {
        fill: #d54538;
      }

      .st32 {
        fill: #4acdcd;
      }

      .st33 {
        fill: #e1b584;
      }

      .st34 {
        fill: #878380;
      }

      .st35 {
        fill: #853c99;
      }

      .st36 {
        fill: #bc2468;
      }

      .st37 {
        fill: #a8b1be;
      }

      .st38 {
        fill: #fde9ed;
      }

      .st39 {
        fill: #1c435d;
      }

      .st40 {
        fill: #94bc2b;
      }

      .st41 {
        fill: #869207;
      }

      .st42 {
        fill: #fffeff;
      }

      .st43 {
        fill: #728685;
      }

      .st44 {
        fill: #3d3331;
      }

      .st45 {
        fill: #414c4a;
      }

      .st46 {
        fill: #bacf48;
      }

      .st47 {
        fill: #190904;
      }

      .st48 {
        fill: #625f5c;
      }

      .st49 {
        fill: #fc7c01;
      }

      .st50 {
        fill: #477707;
      }

      .st51 {
        fill: #5a293f;
      }

      .st52 {
        fill: #a75725;
      }

      .st53 {
        fill: #d39b67;
      }

      .st54 {
        fill: #2c5652;
      }

      .st55 {
        fill: #cede74;
      }

      .st56 {
        fill: url(#linear-gradient);
      }

      .st57 {
        fill: #792b18;
      }

      .st58 {
        fill: #f47571;
      }

      .st59 {
        fill: #b57346;
      }

      .st60 {
        fill: #d58528;
      }
    </style>
    <linearGradient id="linear-gradient" x1="741.55" y1="432.5" x2="859.26" y2="464.56" gradientTransform="translate(487.06 359.16) scale(.45)" gradientUnits="userSpaceOnUse">
      <stop offset="0" stop-color="#e8674f"/>
      <stop offset="1" stop-color="#d9392b"/>
    </linearGradient>
  </defs>
  <g id="Generative_Object">
    <g>
      <path class="st17" d="M953.94,524.57c-15.41.1-30.85.28-46.24.45v-1.81c1.4.13,1.22-2.88,1.36-4.08l57.8-2.72v7.25c-3.62.08-7.26-.1-10.88,0-.83.02-2.24-.45-2.04.91Z"/>
      <path class="st34" d="M967.54,524.12c-.06,1-.4,1.72-.45,2.72-27.68,1.23-56.76-1.6-84.31,0-2.27-.34-4.51-.38-6.8-.45-1.1-.3-.01-.91,0-1.36,10.54.1,21.17.12,31.73,0,15.38-.17,30.82-.35,46.24-.45,4.54-.03,9.11.2,13.6-.45Z"/>
      <g>
        <path class="st17" d="M954.39,486.5c4.52-.03,9.09-.17,13.6.23-.69,12.37.24,25.08-.45,37.4-4.49.65-9.06.42-13.6.45-.2-1.36,1.21-.88,2.04-.91,3.62-.1,7.26.08,10.88,0v-7.25l-57.8,2.72c.87-7.55,3.08-22.08,2.72-29.01l1.13-2.72c12.94.66,25.87-.7,38.76-.91.9-.01,1.82,0,2.72,0Z"/>
        <path class="st42" d="M938.3,503.27c4.03-1.27,5.14,4.77,1.81,5.44-3.94.79-4.38-4.63-1.81-5.44Z"/>
      </g>
    </g>
    <g>
      <path class="st59" d="M745.42,601.18c-1.75,7.52-3.19,15.16-4.99,22.66l-2.49,4.08-1.59-3.63c2.64-12.63,5.7-25.07,8.61-37.62,1.3-.9.89.31.91,1.13.1,4.37-.78,9-.45,13.37Z"/>
      <path class="st52" d="M754.94,560.84c-3.07,13.45-6.39,26.9-9.52,40.34-.33-4.37.55-9,.45-13.37-.02-.83.39-2.03-.91-1.13,2.2-9.5,4.03-19.08,6.35-28.56l.23,9.52c1.75-1.22,1.29-6.58,3.4-6.8Z"/>
      <path class="st59" d="M757.21,549.51c-.85,3.74-1.41,7.6-2.27,11.33-2.11.22-1.64,5.57-3.4,6.8l-.23-9.52c1.19-4.89,2.21-9.66,3.63-14.51l2.27,5.89Z"/>
      <path class="st52" d="M740.44,623.85c-.95,3.97-1.67,8.44-2.72,12.24-.57,2.08-.86,6.96-3.85,5.89l-1.13-1.13c-.37-1.09.74-3.6.91-4.76.58-4.03,1.9-7.84,2.72-11.79l1.59,3.63,2.49-4.08Z"/>
      <path class="st52" d="M760.38,536.36c-.93,4.4-2.18,8.76-3.17,13.15l-2.27-5.89c.58-1.96.75-4.73,1.36-6.8l.68-.91c.84-.47,3.23.46,3.4.45Z"/>
      <path class="st59" d="M787.58,536.81l12.69,76.61c-.9,1.05.37,2.79.45,3.63.54,5.36.71,12.61.91,18.13.1,2.82,1.61,7.09-.68,9.07-3.66,1.17-3.16-6.87-3.4-9.07-.65-6.05-1.12-12.08-1.81-18.13-.14-1.18.14-2.45,0-3.63-2.48-20.5-6.03-41.07-9.52-61.42-.21-1.25-.77-4.94-1.81-5.67.2-3.59-.94-6.85-.91-10.43,2.32-.76,3.85.92,4.08.91Z"/>
      <path class="st18" d="M778.97,569.45c-4.64,21.3-8.81,45.51-14.96,66.18-.45,1.53-.49,5.21-2.49,5.44-2.44.28-2.37-3.32-1.59-4.99l22.21-94.74c-1.08,5.51-4.45,16.95-4.53,21.53,0,.43,1.35.76,1.36.91.07,1.07-1.42,3.7,0,5.67Z"/>
      <g>
        <path class="st35" d="M755.85,490.12c11.31,11.19,27.99,15.12,43.06,18.59.57,6.44,1.3,12.66,2.27,19.04-15.18,0-30.38-.12-45.56,0-.35,0,0-.91-.68-.91-1.15-11.82-5.09-24.13-6.35-35.81,1.4-2.72,5.22-.86,7.25-.91Z"/>
        <path class="st7" d="M798,485.14l.45,16.32c-.26-3.89-.34-7.93-.91-11.79-.02-.11,1.25-1.38-.23-2.27h-48.73c.08-.47-.55-1.72,1.59-2.27,11.15-2.83,35.37,2.27,47.82,0Z"/>
        <path class="st9" d="M797.55,489.67c-13.91-.24-27.81.11-41.7.45-2.03.05-5.86-1.81-7.25.91-.18-1.64-.28-1.97,0-3.63h48.73c1.48.89.21,2.15.23,2.27Z"/>
        <path class="st9" d="M797.55,489.67c.57,3.86.64,7.89.91,11.79.11,1.59.31,3.37.45,4.99.07.74-.07,1.53,0,2.27-15.07-3.46-31.75-7.4-43.06-18.59,13.89-.34,27.8-.69,41.7-.45Z"/>
      </g>
      <path class="st15" d="M784.41,546.33c-.4,7.02-3.91,16.08-5.44,23.12-1.42-1.97.07-4.6,0-5.67,0-.15-1.37-.48-1.36-.91.08-4.58,3.45-16.02,4.53-21.53.17-.85.34-4.29.45-4.53.03-.06.67-.83.91-.91-.04,3.57,1.11,6.83.91,10.43Z"/>
    </g>
    <g>
      <g>
        <path class="st52" d="M691.48,612.97c-.69,7.21-.88,14.58-1.81,21.76-1.62-2.25-.6,2.05-.91,2.49-.9,1.33-24.19.39-27.65,1.59-.06-.27.05-.63,0-.91-1.46-8.33-1.72-16.99-2.72-25.38l33.09.45Z"/>
        <path class="st52" d="M669.72,600.27c.59-.02.42-.45.45-.45.45-.01.91.01,1.36,0,.09,0,.64.48,1.81.45,1.09-.03,1.72-.45,1.81-.45.74,0,1.51,0,2.27,0,.3,0,.61,0,.91,0,.73,0,1.53,0,2.27,0,.6,0,1.21,0,1.81,0,4.3-.02,8.61.01,12.92,0,.02,5.03,2.11,5.7-2.72,6.8-.39.09-.18.9-.23.91-.67.04-.34-.91-.68-.91-8,.19-16.02-.07-24.02,0-2.53.02-7.96,1.12-10.2.91-4.59-.44-3.41-3.15-3.4-7.25,4.77.39,9.56-.32,14.28-.45.07,0,.01.49,1.36.45Z"/>
        <path class="st15" d="M692.39,607.53c-.43,1.69-.74,3.73-.91,5.44l-33.09-.45c-.19-1.6-.61-3.38-.91-4.99,2.24.22,7.67-.89,10.2-.91,8-.07,16.03.19,24.02,0,.34,0,.01.95.68.91Z"/>
        <path class="st15" d="M689.67,634.73c-.12.92-.35,1.59-.45,2.27-.18,1.12.52,4-.68,4.53l-26.74.45c-.27-.17-.54-2.58-.68-3.17,3.46-1.19,26.75-.26,27.65-1.59.3-.45-.71-4.75.91-2.49Z"/>
      </g>
      <g>
        <path class="st12" d="M698.28,552.68c-2.01.86-6.25,2.23-8.39,2.72-1.29.3-3.88-.51-4.08-.45-1.1.29-2.06,5.33-2.49,6.35-1.08,2.56-2.34,5.04-3.17,7.71h-.91c.7-1.9,4.96-12.66,4.99-13.37.05-1.5-2.32-4.26-2.72-5.89-1.93-7.83.52-16.79,6.35-22.44,6.47-6.27,14.27-6.24,22.66-6.35,4.42-.05,8.93-.49,13.15,1.13-7.11,1.83-7.35,9.92-10.43,15.41-3.49,6.24-8.32,12.34-14.96,15.19Z"/>
        <path class="st55" d="M710.52,520.95c-8.39.1-16.2.07-22.66,6.35l-.45-2.27c5.77-5.43,8.44-8.42,8.61-16.77l12.47-8.61,2.04,21.31Z"/>
        <g>
          <path class="st41" d="M652.95,563.56c3.32,4.02,6.99,9.53,7.25,14.96-2.36-1.28-8.39-.93-11.56-2.27-3.34-1.41-5.38-5.12-8.61-6.8-7.31-3.8-17.66-3.24-25.38-.91-.37-1.41,1.93-2.84,2.49-3.63,2.43.5,3.09-1.62,4.99-3.17l.91,1.59c5.57-3.7,14.09-4.08,20.17-1.59,3.99,1.63,6.44,7.91,9.75,1.81Z"/>
          <path class="st41" d="M649.78,559.02c-.32,1.59,2.18,3.34,3.17,4.53-3.31,6.09-5.76-.18-9.75-1.81-6.09-2.49-14.6-2.11-20.17,1.59l-.91-1.59c3.54-2.91,7.11-5.85,12.01-5.89l-1.36-.91,6.12-.91c3.64.45,7.83,3.01,10.88,4.99Z"/>
          <path class="st40" d="M653.4,561.74c3.89,4.76,6.69,10.16,9.07,15.87,3.01,7.23,4.85,15.21,7.25,22.66-1.35.04-1.29-.46-1.36-.45-1.14-3.75-5.21-19.71-8.16-21.31-.26-5.43-3.93-10.94-7.25-14.96-.99-1.2-3.49-2.94-3.17-4.53,1.28.83,2.46,1.74,3.63,2.72Z"/>
          <path class="st41" d="M638.9,554.04l-6.12.91,1.36.91c-4.9.05-8.47,2.99-12.01,5.89-1.9,1.56-2.55,3.68-4.99,3.17,5.72-8.02,11.29-12.18,21.76-10.88Z"/>
          <path class="st41" d="M662.47,577.61c-2.37-5.7-5.17-11.11-9.07-15.87,4.19,3.54,11.09,9.96,9.07,15.87Z"/>
        </g>
        <g>
          <path class="st12" d="M635.27,528.65c2.79,5.85,5.3,11.88,8.16,17.68-7.74-7.06-12.65-13.12-24.48-12.47,2.25-7.01,10.33-7.1,16.32-5.21Z"/>
          <g>
            <path class="st40" d="M671.53,599.82c-.45.01-.91-.01-1.36,0-.45-7.13-.47-14.44-1.36-21.53-.34-2.67-2.73-17.09-3.63-18.59-1.57-2.61-11.62-4.31-14.73-6.12s-4.58-5.02-7.03-7.25c-2.86-5.8-5.36-11.83-8.16-17.68-1.11-2.33-1.82-5.57-3.17-7.93l-7.03-11.11c6.62,1.77,14.53,2.3,20.85,4.99,8.35,3.55,27.43,15.53,27.88,25.16.41,8.98-7.41,16.2-7.25,21.31.11,3.59,2.7,10.73,3.17,14.96.89,7.89.93,15.91,1.81,23.8Z"/>
            <path class="st46" d="M656.58,535c1,1.47,2.87,3.48,2.49,5.44-1.51-1.44-1.78-3.76-2.49-5.44Z"/>
            <path class="st46" d="M659.52,540.89c.19-.06,2.15,2.93,1.36,3.63-.55.29-2.02-3.4-1.36-3.63Z"/>
            <path class="st46" d="M656.58,535c-.36-.53-2.12-.94-1.13-2.27.5.73.79,1.46,1.13,2.27Z"/>
          </g>
        </g>
        <path class="st42" d="M687.85,527.29c-5.83,5.65-8.28,14.6-6.35,22.44.4,1.63,2.77,4.39,2.72,5.89-.03.71-4.29,11.47-4.99,13.37-.38,1.03-1.13,4.3-2.27,3.85v-36.49c-.09-5.4,6.97-8.08,10.43-11.33l.45,2.27Z"/>
        <g>
          <path class="st55" d="M685.13,583.05c-.9.68-2.46,3.63-2.72,4.53-1.87-2.54-2.83-5.68-2.72-8.84-1.54.27-.86,3.21-.91,4.31l-1.81-.23c.94-1.39.26-3.42.45-4.99.23-1.85,2.04-6.66,2.72-8.84.83-2.67,2.09-5.15,3.17-7.71l3.85,6.8c6.67-7.84,15.92-10.65,25.16-13.6,6.73.69,13.99-.3,19.49,4.31-14.12-1.5-27.51,2.18-37.62,12.24-2.02,2.01-8.13,9.58-9.07,12.01Z"/>
          <path class="st55" d="M698.28,552.68c4.71.26,9.4,1.33,14.05,1.81-9.23,2.95-18.49,5.76-25.16,13.6l-3.85-6.8c.43-1.02,1.39-6.06,2.49-6.35.2-.05,2.79.75,4.08.45,2.13-.49,6.38-1.86,8.39-2.72Z"/>
          <path class="st40" d="M682.41,599.82c-.6,0-1.21,0-1.81,0,.78-3.81.76-8.56,1.81-12.24.26-.9,1.82-3.85,2.72-4.53-1.59,4.15-2.17,12.18-2.72,16.77Z"/>
          <path class="st42" d="M682.41,587.58c-1.05,3.67-1.03,8.42-1.81,12.24-.73,0-1.54,0-2.27,0-.05-5.59.2-11.19.45-16.77.05-1.1-.64-4.03.91-4.31-.11,3.16.85,6.3,2.72,8.84Z"/>
        </g>
        <g>
          <path class="st40" d="M696.01,508.26c-.18,8.35-2.84,11.35-8.61,16.77-3.46,3.25-10.52,5.93-10.43,11.33-.21-1.17-1.06-2.36-1.36-3.17-3.67-10.05-11.75-9.82-11.33-23.8.16-5.16,3.53-20.81,6.35-24.93,2.06-3.01,8.31-5.07,5.89-8.61,10.72,6.84,19.77,19.18,19.49,32.41Z"/>
          <path class="st50" d="M676.97,536.36v36.49c1.14.45,1.89-2.82,2.27-3.85h.91c-.68,2.18-2.49,6.99-2.72,8.84-.2,1.57.49,3.6-.45,4.99l1.81.23c-.25,5.58-.51,11.18-.45,16.77-.3,0-.61,0-.91,0l-.23-13.6-2.04,13.6c-.09,0-.72.43-1.81.45,4.63-22.21.61-44.61,2.27-67.09.3.82,1.15,2,1.36,3.17Z"/>
          <path class="st10" d="M677.43,599.82c-.75,0-1.53,0-2.27,0l2.04-13.6.23,13.6Z"/>
        </g>
      </g>
    </g>
    <g>
      <g>
        <path class="st23" d="M1071.8,578.06c-.54,1.69-1.52,6.13-1.13,7.25.39-1.33,1.43-1.33,1.81,0l.68-1.13c-1.61-2.96-.66-3.52,0-6.12h26.29c.24.48,1.34,2.35,1.36,2.49.02.12-1.48,1.17-.91,2.27,1.98-1.81,1.45.67,1.59.68,3.53.35-.51-4.52-.68-5.44h4.53c2.92,0,6.21-.21,9.07,0,.87,12.85,2.07,25.7,3.17,38.53-1.93,2.73-2.12,6.73-3.63,9.75-5.99,11.99-18.29,13.75-30.37,13.83-.1-12.26-5.31-25.91-5.44-38.3l-.68-1.13c-1.28-.11-2.05.6-3.4.45-4.97-.53-9.56-.02-14.51,0-.32-1.36-.81-3.29-1.36-4.53,2.22-3.32,1.27-15.46,2.72-17.91.85-1.44,9.05-.32,10.88-.68Z"/>
        <path class="st36" d="M1126.19,638.81c.04,1.29,1.04,2.23-.23,3.17-2.05.08-4.08.3-6.12.45-.67-8.61-1.53-17.24-2.27-25.84-1.1-12.84-2.3-25.68-3.17-38.53,1.16.09,4.48-.46,4.99.68.75,19.7,6.27,40.55,6.8,60.06Z"/>
        <path class="st44" d="M1100.35,563.1c.79.66,3.8,4.58,4.08,5.44.76,2.34.46,6.9.91,9.52h-1.36c.27-5.19.24-8.57-3.17-12.69-3.91-4.73-9.24-6.05-13.15-.68l13.15,12.92c.02.15-.03.31,0,.45.17.92,4.21,5.79.68,5.44-.14-.01.39-2.49-1.59-.68-.57-1.1.92-2.15.91-2.27-.02-.14-1.12-2.01-1.36-2.49-1.65-3.3-6.39-7.94-9.52-9.97-1.14-.74-1.52-1.95-3.63-2.27-7.28-1.11-11.56,6.01-13.15,12.24-.66,2.6-1.61,3.16,0,6.12l-.68,1.13c-.39-1.33-1.43-1.33-1.81,0-.38-1.12.59-5.56,1.13-7.25.97-3.03,4.78-10.69,7.48-12.24,2.72-1.56,5.42-.74,7.03-1.36,1.47-.57,2.48-3.59,4.53-4.08,3.29-.78,6.98.59,9.52,2.72Z"/>
        <path class="st4" d="M1117.58,616.59c.74,8.6,1.59,17.23,2.27,25.84-11.84.86-24.29.06-36.26.45v-.91c0-.6,0-1.21,0-1.81,12.08-.07,24.38-1.84,30.37-13.83,1.51-3.01,1.7-7.02,3.63-9.75Z"/>
        <path class="st17" d="M1089.93,568.09v9.97h-3.63v-12.24c2.11.32,2.49,1.52,3.63,2.27Z"/>
        <path class="st17" d="M1103.98,578.06h-3.17c-.03-.15.02-.31,0-.45-.58-3.56.43-8.51,0-12.24,3.42,4.13,3.44,7.5,3.17,12.69Z"/>
        <path class="st42" d="M1100.81,565.37c.43,3.73-.58,8.67,0,12.24l-13.15-12.92c3.91-5.37,9.23-4.05,13.15.68Z"/>
      </g>
      <g>
        <path class="st30" d="M1059.56,601.18c4.95-.02,9.54-.53,14.51,0-.73,3.42.86,6.79,1.36,10.65,1.35,10.44,1.49,21.21,3.4,31.5l4.76-1.36v.91c-1.62.05-3.71,1.33-4.76,1.36-22.33.63-44.75-.47-67.09,0-.87-.36.03-6.8.23-8.16,1.53-10.74,4.94-21.91,5.89-32.86l1.13-1.13h13.83c-.07.91.21,3.28,1.13,3.63.65,0,.58-2.84.68-3.63l23.57-1.81c.37,1.97.12,2.69-.23,4.53,4.07-.22,2.25-.77,1.59-3.63Z"/>
        <path class="st60" d="M1083.58,640.16c0,.6,0,1.21,0,1.81l-4.76,1.36c-1.91-10.3-2.05-21.07-3.4-31.5-.5-3.86-2.09-7.23-1.36-10.65,1.35.14,2.12-.56,3.4-.45l.68,1.13c.13,12.4,5.34,26.04,5.44,38.3Z"/>
        <path class="st26" d="M1058.2,596.65c.55,1.24,1.04,3.17,1.36,4.53.67,2.86,2.48,3.41-1.59,3.63.35-1.84.6-2.56.23-4.53-1.79-9.46-9.25-14.85-17.91-8.61-4.6,3.31-5.04,5.61-5.67,10.43-.1.78-.03,3.64-.68,3.63-.92-.35-1.2-2.72-1.13-3.63.34-4.57,3.66-9.41,7.48-11.79,8.31-5.16,14.16-2.18,17.91,6.35Z"/>
        <path class="st42" d="M1058.2,600.27l-23.57,1.81c.62-4.82,1.07-7.11,5.67-10.43,8.65-6.24,16.12-.85,17.91,8.61Z"/>
      </g>
    </g>
    <g>
      <g>
        <path class="st27" d="M823.84,481.96c-5.21,8.65-8.62,18.27-10.88,28.1-1.03,3.1-1.97,6.1-2.72,9.29-.25,1.04.61,1.84-1.36,1.59-1.47-5.67-1.98-13.52-2.72-19.49-.77-6.18-1.29-12.43-2.27-18.59l19.95-.91Z"/>
        <path class="st31" d="M803.9,482.87c.97,6.16,1.5,12.4,2.27,18.59l-.23,4.53c-2.31.67-5.36-1.61-7.03.45-.14-1.62-.35-3.4-.45-4.99l-.45-16.32c.34-.06,3.49-3.13,5.89-2.27Z"/>
        <path class="st16" d="M808.88,520.95c.73,2.8,2.29,3.7,2.72,4.99.02.06-.91.47,0,1.36-3.38,0-6.96.45-10.43.45-.97-6.38-1.69-12.6-2.27-19.04-.07-.74.07-1.53,0-2.27,1.66-2.06,4.71.22,7.03-.45l.23-4.53c.74,5.97,1.25,13.82,2.72,19.49Z"/>
        <path class="st16" d="M813.87,536.36l5.67,36.72h59.38c1.38-1.28,4.44.93,3.85-2.27.05.27.82,1.94.91,2.27.57,2.26.92,4.62,1.81,6.8-1.77.79-3.98.44-5.89.45-3.77.03-7.56,0-11.33,0-2.57,0-5.23.43-7.71.45-5.25.06-10.58-.06-15.87,0-.28,0-.59,0-.91,0-2.26.03-4.64.42-6.8.45-2.81.04-5.78-.02-8.61,0-2.26.01-4.54.04-6.8,0-1.69-.03-7.24.5-8.16-.68l-9.07-44.2c3.18-.01,6.34,0,9.52,0Z"/>
        <path class="st56" d="M822.94,536.36c-2.23,10.36.7,27.11,13.37,29.01,12.96,1.94,31.88-1.52,45.1-2.72.14,2.45.89,5.69,1.36,8.16.59,3.2-2.48.99-3.85,2.27h-59.38l-5.67-36.72c2.64,0,6.28-1.29,9.07,0Z"/>
      </g>
      <g>
        <path class="st57" d="M977.96,536.36c2.18,8.77,4.66,17.51,6.8,26.29l-1.36.68c.63,8.95,1.87,17.56,4.08,26.29.74,2.91,2.51,15.86,6.35,11.56,2.54,11.09,6.33,23.96,8.16,34.9,1.78,10.61-3.62,8.01-4.08,0l-24.02-99.73c1.35-.01,2.77.02,4.08,0Z"/>
        <path class="st18" d="M969.35,613.87c.21,1,.25,2.21.45,3.17,1.28,6.11,3.19,12.44,4.08,18.59.3,2.04,1.53,4.37-.23,5.89-3.47,1.31-3.34-4.9-3.85-6.8-1.55-5.77-2.94-11.73-3.63-17.68.71,0,.21,1.66,1.36.23-.14-3.3-1.85-8.28-1.81-11.33.02-1.51-.13-1.46,1.36-2.04.72,3.32,1.57,6.66,2.27,9.97Z"/>
        <g>
          <path class="st13" d="M875.52,527.75c30.29.37,61.09.44,91.57,0,7.33-.11,18.09,1.12,23.57.91v2.27c-27.91,1.39-55.91,1.23-83.86,1.36-31.23.15-62.65.61-93.83.45-25.08-.12-50.2-.72-75.25-1.81.12-1.11-.45-2.37.68-3.17,3.24-.06,6.51.09,9.75,0-.21,1.8.34,1.25,1.59,1.36,15.46,1.42,33.98.01,48.96-.45,3.03-.09,4.28,1.36,4.53,1.36,5.85.06,47.72.83,49.86-.45.67-.4,1.1-.19.45-1.36-2.36-1.27-22.01,1.31-25.84,0-.35-.12-.23-.61-.23-.91,16.01.11,32.04.26,48.05.45Z"/>
          <path class="st53" d="M812.96,532.73c.67,4.31,9.28-.47,10.88,3.17l-.91.45c-2.79-1.29-6.42,0-9.07,0-3.18,0-6.34-.01-9.52,0-5.53.02-10.99-.68-16.55-.45-.37.02-.18.9-.23.91-.23.01-1.76-1.67-4.08-.91-.23.08-.88.85-.91.91.22-1.3-1.27-.96-2.04-.91-6.79.48-13.42.13-20.17.45-.17,0-2.56-.93-3.4-.45l-.68.91-17.91-.45c-1-.44-.78-4.44-.68-5.44,25.05,1.09,50.16,1.69,75.25,1.81Z"/>
          <path class="st13" d="M801.18,527.75c3.46,0,7.04-.45,10.43-.45,4.4,0,8.89.58,13.37.45.83-.02,2.24.45,2.04-.91.15,0,.3,0,.45,0v.45c0,.3-.13.79.23.91,3.83,1.31,23.48-1.27,25.84,0,.65,1.17.22.96-.45,1.36-2.14,1.28-44.01.51-49.86.45-.25,0-1.5-1.45-4.53-1.36-14.98.47-33.49,1.87-48.96.45-1.24-.11-1.79.44-1.59-1.36,2.18-.06,4.38.02,6.57,0,.37,0,.18-.91.23-.91.69,0,.33.91.68.91,15.18-.12,30.38,0,45.56,0Z"/>
          <path class="st53" d="M990.66,530.92c0,.88.2,5.14-.23,5.44-.51.36-10.74-.03-12.47,0-1.31.02-2.73-.01-4.08,0-7.54.08-15.17.02-22.66,0-1.5,0-3.04,0-4.53,0-9.78-.03-19.64-.47-29.46-.45-1.51,0-3.03,0-4.53,0-7.32.02-15.47-.48-22.66,0,2.83-1.52,14.3.51,16.09-.45.29-.16.81-2.59.68-3.17,27.95-.13,55.95.03,83.86-1.36Z"/>
          <path class="st33" d="M906.8,532.28c.13.58-.39,3.02-.68,3.17-1.79.97-13.26-1.07-16.09.45-.77.05-3.3-.37-3.63.45-3.55-.28-6.87-.37-10.43-.45h-52.13c-1.6-3.65-10.21,1.14-10.88-3.17,31.19.15,62.6-.31,93.83-.45Z"/>
          <path class="st53" d="M967.09,526.84c-.02.3,0,.61,0,.91-30.47.44-61.28.37-91.57,0,2.07-.95,5.07.12,6.57,0,.35-.03.62-.9.68-.91,27.55-1.6,56.63,1.23,84.31,0Z"/>
        </g>
        <path class="st15" d="M984.76,562.65c3.12,12.79,6.12,25.7,9.07,38.53-3.83,4.3-5.61-8.65-6.35-11.56-2.21-8.73-3.45-17.34-4.08-26.29l1.36-.68Z"/>
        <path class="st15" d="M951.22,536.36v.45l-1.36,9.52-5.44,36.94c-1.39,10.12-1.28,20.49-2.27,30.6-.1.97-.35,2.12-.45,3.17-.22,2.17.2,10.04-2.95,9.52-2.62-.43-1.2-7.39-1.13-9.52.04-1.2-.06-2.43,0-3.63,1.32-25.8,6.23-51.43,9.07-77.06,1.5,0,3.03,0,4.53,0Z"/>
        <path class="st57" d="M967.09,603.9c-1.49.58-1.34.53-1.36,2.04-.04,3.05,1.67,8.03,1.81,11.33-1.15,1.43-.65-.23-1.36-.23-.15,0-.3,0-.45,0-.09-1-.73-2.26-.91-3.17-4.51-22.63-10.02-45.02-14.96-67.54l1.36-9.52c5.49,22.29,10.99,44.66,15.87,67.09Z"/>
      </g>
    </g>
    <g>
      <path class="st19" d="M844.69,580.78c-.06,10.91-1.14,21.77-1.81,32.64-.07,1.2.08,2.43,0,3.63-.38,6.05-.56,12.08-.91,18.13-.13,2.2-.63,4.55-.68,6.8-1.05-1.59-4.29-.46-4.76-1.13-.16-.23.04-4.72,0-5.67-.24-6.02-.5-12.11-.45-18.13,0-1.05-.01-2.12,0-3.17,0-.15,0-.3,0-.45,1.3.48,4.37.94,4.99-.45l2.72-32.18c.31,0,.63,0,.91,0Z"/>
      <path class="st34" d="M823.39,618.86c-.69,5.25-.89,10.65-1.81,15.87-.23,1.29-.72,6.86-1.59,7.25-4.72.23-2.6-3.66-2.49-6.8.21-6.07.94-12.09,1.36-18.13,2.43.16,3.92-.96,4.53,1.81Z"/>
      <path class="st19" d="M900.45,613.87c.12,1.03.36,2.2.45,3.17.55,5.83,1.46,12.47,1.81,18.13.1,1.66-.43,3.74.45,5.21l-2.49.68c-.79-.44-.9-5.36-1.13-6.35-1.38-5.86-2.47-11.77-3.63-17.68-.2-1.03-.72-2.19-.91-3.17-.03-.15.03-.31,0-.45,3.59.56,4.31,1.26,4.99-2.72-.09,1.11.32,2.09.45,3.17Z"/>
      <path class="st34" d="M888.21,617.05c.08,5.77.58,12.07.45,17.68-.04,1.71.8,9-2.95,6.35-.53-.37-.55-5.38-.68-6.35-.77-5.71-1.21-11.5-1.81-17.23,1.52-.67,3.37-.43,4.99-.45Z"/>
      <path class="st34" d="M869.63,620.22c.23,4.85.7,9.67.91,14.51.06,1.28,1.04,6.19.23,6.8-3.23,2.43-3.61-5.39-3.85-6.8-.99-5.74-1.5-11.87-2.27-17.68.76.05,3.64-.15,3.85,0,.55.39.06,3.84.23,4.76l.91-1.59Z"/>
      <path class="st48" d="M869.17,609.34c.06,1.51.39,3.13.45,4.53.04,1.05-.05,2.12,0,3.17.04.99-.05,2.14,0,3.17l-.91,1.59c-.17-.92.32-4.37-.23-4.76-.21-.15-3.09.05-3.85,0-.14-1.06-.32-2.14-.45-3.17-.02-.15.02-.3,0-.45,6.14,1.99,2.63-1.2,4.99-4.08Z"/>
      <path class="st48" d="M888.21,613.87c.02,1.05-.01,2.12,0,3.17-1.62.02-3.46-.21-4.99.45-.02-.15.02-.3,0-.45-.11-1.07-.34-2.16-.45-3.17-.02-.15.02-.3,0-.45,1.79.46,3.63.41,5.44.45Z"/>
      <path class="st48" d="M824.3,613.87c-.14,1.05-.31,2.11-.45,3.17-.09.71-.36,1.1-.45,1.81-.61-2.77-2.1-1.65-4.53-1.81.07-1.04-.07-2.13,0-3.17.01-.15-.01-.3,0-.45,1.53.23,3.95.5,5.44.45Z"/>
      <path class="st28" d="M843.79,580.78l-2.72,32.18c.54-1.23.72-12.31-3.63-10.88.23-6.64-1.08-14.06-.45-20.85,2.16-.03,4.54-.43,6.8-.45Z"/>
      <path class="st44" d="M841.07,612.97c-.62,1.4-3.68.94-4.99.45.04-4.14,1.28-9.04,1.36-11.33,4.34-1.43,4.17,9.65,3.63,10.88Z"/>
      <path class="st25" d="M899.09,601.18c.04.05.53.35.91.91-1.1,2.71.5,5.71,0,8.61-.68,3.98-1.4,3.28-4.99,2.72-1.45-7.63-2.78-15.41-3.63-23.12,2.25,3.69,5.29,7.25,7.71,10.88Z"/>
      <path class="st34" d="M828.38,581.24c-2.04,10.78-2.67,21.78-4.08,32.64-1.49.04-3.91-.23-5.44-.45.76-10.69,2.21-21.44,2.72-32.18,2.26.04,4.54.01,6.8,0Z"/>
      <path class="st25" d="M887.76,583.96c-.34,9.95.29,19.96.45,29.92-1.81-.04-3.65,0-5.44-.45-1.18-11-2.15-22.07-3.17-33.09,1.91-.01,4.12.34,5.89-.45.6,1.46,1.56,2.71,2.27,4.08Z"/>
      <path class="st34" d="M868.27,580.33c-.01,9.67.49,19.36.91,29.01-2.36,2.88,1.16,6.07-4.99,4.08-1.4-10.84-2.37-21.78-3.63-32.64,2.48-.03,5.13-.45,7.71-.45Z"/>
    </g>
    <g>
      <g>
        <path class="st38" d="M842.88,471.54c2.21,1.38,3.46,4.89,7.03,5.89,4.43,1.25,15.89.54,12.92-5.89,2.61.39,6.7,2.52,7.71,1.36,3.09,5.02,6.09,11.53,8.16,17.23-.02,5.31.12,9.82-4.31,13.6-2.29-.99-7.02,1.51-10.43,1.81-11.35,1.03-25.73,2.08-28.56-11.79-.89-.15-4.22,8.48-4.76,9.52-.17.33-2.12,2.42-2.27,2.72l-10.2-9.07c-.88,0-4.7,11.59-5.21,13.15,2.26-9.84,5.66-19.45,10.88-28.1.62-1.03,3.95-7.02,4.31-7.25.62-.4,13.33-4.18,14.05-4.08.26.04.03.5.68.91Z"/>
        <path class="st6" d="M847.87,408.08c6.8-.38,9.01,3.75,13.6,7.48-2.31,2.56-6.19,1.3-9.29,1.59,1.5,2.8,8.26,2.04,5.67,6.57-1.67,2.93-9.5,1.86-12.47,2.04l2.49,1.13-1.36,1.59c-4.86.51-3.17,6.99-4.53,9.75-.09.17-2.63-.3-3.85.23-5.56,2.4-4,14.79,3.4,12.24,3.92,2.48,2.65,5.87,2.72,9.07s-.05,6.2,0,9.29c-.04.1-1.24,1.07-1.36,1.13-2.26,1.16-11.01,1.91-14.05,3.4-2.94-7.73-4.72-18.05-4.08-26.29.36-4.58,5.53-26,7.71-29.46,1.98-3.16,11.68-9.53,15.41-9.75Z"/>
        <path class="st6" d="M870.53,472.9c-1.01,1.16-5.1-.97-7.71-1.36-1.19-.18-1.23-.8-1.81-.91-.95-1.38-1.32-6.41-1.81-7.25,9.86-.58,14.1-11.78,15.41-20.17,1.53-9.77-1.19-6.21-8.61-7.71,2.66-2.52,6.35-1.43,8.84.68.58-3.3-.96-7.98-3.63-9.97-5.64-4.2-9.67,1.92-15.87,2.72-2.52.33-5.11-.5-7.48-.45,1.53-1.04,3.98-.15,5.67-.45.19-.03,2.99-.84,3.17-.91,3.15-1.09,6.18-4.74,9.75-5.67-5.53-4.72,1.11-2.88,1.36-5.44.12-1.25-3.55-3.3-3.63-3.63-.17-.74,1.61-1.4,1.36-2.49,11.34,6.12,12.91,12.34,13.6,25.16.7,13.11-3.72,25.91-8.61,37.85Z"/>
        <path class="st2" d="M881.41,501.46c-2.25.93-5.51,2.91-7.25,4.53-.54-2.65-2.73.41-4.31.91-10.03,3.12-22.33-.72-27.88,8.61l-10.88-2.27c.94-.03,1.1.82,1.81-.23.51-3.52-1.48-6.46-2.27-9.75.54-1.04,3.87-9.67,4.76-9.52,2.83,13.87,17.2,12.81,28.56,11.79,3.4-.31,8.13-2.81,10.43-1.81,4.43-3.78,4.29-8.29,4.31-13.6,1.05,2.89,2.89,6.98,3.63,9.75.19.73-1.03,1.11-.91,1.59Z"/>
        <path class="st57" d="M865.55,409.89c.25,1.09-1.53,1.75-1.36,2.49.07.32,3.75,2.38,3.63,3.63-.25,2.56-6.89.72-1.36,5.44-3.57.92-6.59,4.57-9.75,5.67-.18.06-2.99.87-3.17.91-1.69.3-4.14-.59-5.67.45-.45,0-.92-.05-1.36,0l1.36-1.59-2.49-1.13c2.96-.18,10.79.89,12.47-2.04,2.59-4.53-4.17-3.78-5.67-6.57,3.1-.29,6.98.97,9.29-1.59-4.59-3.73-6.8-7.86-13.6-7.48,6.66-3.61,11.76-1.38,17.68,1.81Z"/>
        <path class="st0" d="M831.1,513.24c-1.7.05-3.32-.47-4.99-.68-.13-2.49,1.25-4.49,2.27-6.57.15-.3,2.1-2.39,2.27-2.72.79,3.29,2.77,6.23,2.27,9.75-.71,1.05-.88.2-1.81.23Z"/>
        <path class="st38" d="M874.16,505.99c-1.42,1.32-3.78,4.09-3.63,5.44-2.06,1.17-2.88,5.07-1.36,6.8-8.94-1.75-18.23-1.2-27.2-2.72,5.55-9.33,17.85-5.49,27.88-8.61,1.58-.49,3.76-3.56,4.31-.91Z"/>
        <g>
          <path class="st27" d="M881.41,501.46c.41,1.6,2.46,9.35,3.4,9.97l22.89,4.99c-.05,1.95,0,3.94,0,5.89-9.31,1.07-18.77.12-28.1.45-1.82.02-4.52-3.24-5.44-3.63-.32-2.59-3.35-5.33-3.63-7.71-.16-1.35,2.21-4.12,3.63-5.44,1.74-1.62,5-3.6,7.25-4.53Z"/>
          <path class="st3" d="M861.01,470.63c.59.11.63.73,1.81.91,2.97,6.43-8.49,7.14-12.92,5.89-3.57-1-4.82-4.51-7.03-5.89v-1.36c.12-.06,1.32-1.03,1.36-1.13-.05-3.1.07-6.2,0-9.29,2.8,2.69,4.86,9.48,8.84,10.88,3.04,1.07,6.29-.29,7.93,0Z"/>
          <path class="st3" d="M828.38,505.99c-1.01,2.08-2.4,4.08-2.27,6.57,1.67.21,3.29.73,4.99.68l10.88,2.27c8.96,1.52,18.26.97,27.2,2.72,1.46.29,3.62.33,4.99.91.92.39,3.62,3.65,5.44,3.63-1.03.04-2.52,1.15-3.85-.45-.49.09.23,2.58.23,2.72-.01.45-1.1,1.06,0,1.36-.63-.02-2.71.51-3.4.45-.85-.07-2.56-1.8-2.72-1.81-.12-.01.03,1.11-2.27.91-16.17-1.44-24.52.3-40.12.91-.15,0-.3,0-.45,0-5.13.18-10.47.34-15.41-.91-.43-1.28-1.99-2.18-2.72-4.99,1.97.25,1.11-.55,1.36-1.59.75-3.19,1.69-6.2,2.72-9.29.52-1.56,4.33-13.15,5.21-13.15l10.2,9.07Z"/>
          <path class="st27" d="M859.2,463.38c.49.84.86,5.87,1.81,7.25-1.64-.29-4.9,1.07-7.93,0-3.98-1.4-6.04-8.19-8.84-10.88-.07-3.2,1.2-6.59-2.72-9.07,2.57-1.75-4.83-5.35-.23-9.07.74,6.18,5.26,12.72,9.97,16.77,1.44,1.24,7.56,4.35,7.93,4.99Z"/>
          <path class="st38" d="M875.97,526.39c2.29.08,4.53.12,6.8.45-.06,0-.33.88-.68.91-1.51.12-4.5-.95-6.57,0-16.01-.2-32.04-.34-48.05-.45v-.45c15.6-.61,23.95-2.35,40.12-.91,2.3.2,2.15-.92,2.27-.91.16.02,1.87,1.74,2.72,1.81.69.06,2.77-.47,3.4-.45Z"/>
          <path class="st42" d="M870.53,511.43c.28,2.38,3.3,5.12,3.63,7.71-1.36-.58-3.53-.62-4.99-.91-1.52-1.73-.7-5.63,1.36-6.8Z"/>
          <g>
            <path class="st3" d="M859.2,463.38c-.37-.63-6.49-3.75-7.93-4.99-4.71-4.05-9.24-10.59-9.97-16.77-4.6,3.71,2.8,7.32.23,9.07-7.4,2.55-8.96-9.84-3.4-12.24,1.22-.53,3.77-.05,3.85-.23,1.36-2.75-.33-9.24,4.53-9.75.44-.05.91,0,1.36,0,2.37-.04,4.96.78,7.48.45,6.2-.8,10.22-6.92,15.87-2.72,2.67,1.99,4.21,6.67,3.63,9.97-2.49-2.11-6.18-3.2-8.84-.68,7.42,1.5,10.14-2.06,8.61,7.71-1.31,8.39-5.55,19.59-15.41,20.17Z"/>
            <g>
              <path class="st42" d="M866.91,452.95l.45.45c-4.37,4.47-8.95,2.92-12.69-1.36l12.24.91Z"/>
              <path class="st58" d="M867.36,453.41c-1.39,7.9-11.49,4.94-12.69-1.36,3.74,4.28,8.33,5.83,12.69,1.36Z"/>
              <path class="st58" d="M866.91,452.95l-12.24-.91c1.38-2.17,11.93-3,12.24.91Z"/>
              <path class="st47" d="M851.27,437.99l2.49,2.49c-.99,7.77-5.85,2.09-2.49-2.49Z"/>
              <path class="st6" d="M849.91,433.46c1.72-.26,5.52-.2,6.12,2.04-3.55.63-6.81-1.22-10.2.68.05-1.2,3.35-2.61,4.08-2.72Z"/>
              <path class="st47" d="M868.04,438.45c1-.51,3.46,5.59.45,6.35-2.17-1.4-2.19-4.55-.45-6.35Z"/>
            </g>
          </g>
        </g>
      </g>
      <g>
        <path class="st38" d="M919.94,623.85c.24.67.63,1.57.91,2.27l-6.57-.45c-1.28.71,7.85,12.91,8.61,13.15,1.51.47,3.73-.53,4.76-.45.85.06,7.41.05,7.25,1.59l-10.43,2.49c-3.28-1.71-7.2-3.24-9.75-6.35l-.23,5.89c-2.11-1.04-.39-5.22-.45-7.25-.08-2.67-3.03-1.99-4.08-3.4-.42-.56,1.5-5.09.91-6.12.6-.5.7-2.2,2.27-2.27.06,0,.36.92.68.91,2.04-.05,4.09.04,6.12,0Z"/>
        <path class="st3" d="M920.85,626.11c1.59,3.96,3.31,5.72,5.44,9.07.34.54.97,2.42,1.36,3.17-1.03-.08-3.25.92-4.76.45-.77-.24-9.89-12.43-8.61-13.15l6.57.45Z"/>
        <path class="st39" d="M823.84,535.91h52.13c-13.57-.3-27.41,1.17-41.02.45-16.6,33.65,30.3,18.56,47.14,20.4.81.58-.73,5.07-.68,5.89-13.22,1.2-32.14,4.66-45.1,2.72-12.67-1.9-15.6-18.65-13.37-29.01l.91-.45Z"/>
        <path class="st39" d="M913.14,541.8c.67.27,2.92,1.42,3.63,1.81,1.9,1.06,5.87,3.51,6.35,5.67,1.2,5.47-.64,18.29-.45,24.93.4,13.97,1.06,24.97.45,39.21-.04.88.57,2.13.45,3.63-.07,1-.29,3.17-.45,4.08-3.5-2.12-4.28-5.96-5.44-9.52-2.89-8.91-5.59-17.81-8.61-26.74-1.1-3.25-3.06-7.18-3.63-10.43-.42-2.38-.78-5.08-.45-7.48.66-4.86,5.96-8.11-.68-11.11-1.32-.6-3.7-.45-5.21-.91-.87-2.61-3-9.71-4.08-11.56-1.64-2.82-6.06-5.15-8.61-7.03,7.28.58,20.09,2.72,26.74,5.44Z"/>
        <path class="st27" d="M917.68,611.61c1.16,3.56,1.94,7.4,5.44,9.52-.09.52.24,1.46-.23,1.81-1.15.17-1.79-.49-2.95-.45-1.24-3.57-2.03-7.29-3.17-10.88h.91Z"/>
        <path class="st3" d="M919.94,622.49c.12.34-.12,1.03,0,1.36-2.03.04-4.08-.05-6.12,0-.32,0-.62-.91-.68-.91v-.91c1.43.73,5.07.51,6.8.45Z"/>
        <path class="st8" d="M886.4,536.36c2.55,1.88,6.97,4.2,8.61,7.03,1.08,1.85,3.21,8.95,4.08,11.56,1.45,4.34,2.53,10.7,4.08,15.64.32,1.01.89,3.91,2.27,3.85.57,3.25,2.53,7.18,3.63,10.43-.82.17-.15,2.01,0,2.49,2.52,8.07,5.13,16.19,7.71,24.25,1.15,3.59,1.93,7.31,3.17,10.88-1.73.05-5.37.28-6.8-.45-.38-.2-2.98-4.16-3.63-4.99-.99-1.27-1.79-2.75-2.72-4.08-2.44-3.48-4.42-7.37-6.8-10.88-.38-.56-.87-.85-.91-.91l-15.41-28.1c-.08-.33-.85-1.99-.91-2.27-.47-2.47-1.22-5.71-1.36-8.16-.05-.82,1.49-5.32.68-5.89-16.84-1.84-63.74,13.25-47.14-20.4,13.62.71,27.46-.75,41.02-.45,3.55.08,6.88.17,10.43.45Z"/>
        <path class="st39" d="M899.09,601.18c-2.42-3.62-5.46-7.19-7.71-10.88-1.23-2.02-2.54-4.25-3.63-6.35-.71-1.37-1.67-2.62-2.27-4.08-.89-2.18-1.24-4.54-1.81-6.8l15.41,28.1Z"/>
        <path class="st42" d="M917.68,611.61h-.91c-2.58-8.06-5.18-16.18-7.71-24.25-.15-.49-.82-2.32,0-2.49,3.02,8.93,5.72,17.83,8.61,26.74Z"/>
      </g>
    </g>
    <g>
      <g>
        <path class="st14" d="M958.02,426.66l.91.91c-.63.6-.33.66-.45.91-3.38,6.58,10.94,9.77,17.23,5.89-1.55,19.07-9.57,37.22-21.31,52.13-.9,0-1.82-.01-2.72,0-1.35-9.62-2.32-19.65-4.99-29.01-.22-.77.59-2.68-.68-2.72l-1.59,3.17c-1.37.5-3.77,3.42-5.21,3.17-.46-.08-5.59-6.1-5.67-6.57-.5-3.26,9.96-19.47,12.69-22.21,4.51-4.53,6.92-3.34,11.79-5.67Z"/>
        <path class="st11" d="M946.69,457.49c-.75.72-1.71.25-2.27.45l1.59-3.17c1.27.04.46,1.95.68,2.72Z"/>
        <path class="st14" d="M980.68,425.75c.77.33,2.72,1.2,4.08,1.81.19.09.71-.09.91,0,4.51,2.02,9.03,3.91,12.69,7.25,5.69,5.2,9.08,12.66,13.15,19.04-1.34,5.54-3.82,11.5-4.53,17-1.29,9.97.28,21.01.45,31.05-3.16.08-6.36-.06-9.52,0-.9-11.33-1.04-20.76,1.36-31.96,1.25-5.83,6.06-9.59-3.63-11.79-.75,1.33,1.17,14.93.91,18.13-.36,4.29-3.61,9.52-4.08,12.69-1.78,11.96,4.04,26.39,4.99,38.3-1.56.4-5.38,1.31-6.8,1.36-5.48.21-16.24-1.01-23.57-.91,0-.3-.02-.61,0-.91.05-1,.4-1.71.45-2.72.69-12.32-.24-25.03.45-37.4-4.51-.39-9.08-.25-13.6-.23,11.73-14.91,19.75-33.06,21.31-52.13,1.75-1.08,4.63-3.9,3.63-5.89-.2-.4-.98-.84-1.36-.91v-.45l1.36-1.36c.3.13,1.06-.13,1.36,0Z"/>
        <path class="st42" d="M977.96,427.11v.45c-2.56-.44-14.1.91-18.13.91h-1.36c.13-.25-.18-.3.45-.91.4-.38,9.2-4.96,9.75-4.99s8.08,3.91,9.29,4.53Z"/>
        <path class="st51" d="M959.83,428.47c-.61.94-.43.6,0,1.36.03.06.64.6.91.91,4.44,5.19,15.88,3.8,16.32-.91.03-.3-.01-.61,0-.91.49-.05,1.34-.82,2.27-.45,1,2-1.87,4.81-3.63,5.89-6.29,3.88-20.61.68-17.23-5.89h1.36Z"/>
        <path class="st11" d="M1019.67,498.74c.06.7.55,2.41-.23,2.72-4.03-.15-8,.35-12.01.45-.18-10.04-1.74-21.08-.45-31.05.71-5.49,3.19-11.46,4.53-17,.17-.7.22-1.54.45-2.27.76.02,3.01,1.54,3.17,2.04.62,1.88-.7,15.69-.45,19.49.54,8.42,4.35,18.03,4.99,25.61Z"/>
        <path class="st11" d="M997.91,501.91c.64,8.11,1.06,16.54,4.99,23.8-.31.78-4.38,1.31-5.44,1.59-.95-11.91-6.76-26.35-4.99-38.3.47-3.17,3.72-8.41,4.08-12.69.27-3.2-1.65-16.8-.91-18.13,9.69,2.2,4.87,5.96,3.63,11.79-2.4,11.19-2.26,20.63-1.36,31.96Z"/>
        <path class="st44" d="M979.32,428.47c-.93-.37-1.78.41-2.27.45-5.63.54-11.62-.7-17.23.91-.43-.76-.61-.42,0-1.36,4.03,0,15.57-1.34,18.13-.91.38.06,1.16.51,1.36.91Z"/>
        <path class="st5" d="M960.74,430.74l16.32-.91c-.43,4.7-11.88,6.1-16.32.91Z"/>
        <path class="st42" d="M977.06,428.93c-.01.3.03.61,0,.91l-16.32.91c-.26-.31-.88-.85-.91-.91,5.6-1.61,11.6-.36,17.23-.91Z"/>
      </g>
      <g>
        <g>
          <path class="st30" d="M1082.68,426.66c-.23.84.18.67.45.91,1.14,1.02,1.3.6,2.27.91.89,1.72,2.92,2.67,4.08,4.08,1.42,1.73,2.96,4.37,4.08,6.35,2.25,3.98,3.33,5.18,3.63,9.97-1.01,2.05-4.07,3.2-4.99,4.99-2.56,1.17-4.74-2.66-6.8-3.63,1.15-2.01-.93-1.96-2.49-4.08-2,7.75-5.84,15.26-6.57,23.34-.22,2.39-.02,22.49.45,23.57.7,1.58,5.61-.12,6.8,1.13-8.04.61-17.72.32-25.84,0-.96-.04-5.57.23-5.89-.23.15-5.46-.75-10.85-.45-16.32.11-2.02,2.56-17.71,3.17-18.59,1.58-2.25,4.55,1.97,7.03,1.59.45-.07,6.92-5.23,7.03-5.67.78-3.23-14.21-24.2-17.45-25.61-1.87-.82-3.89-.4-6.57-1.81,1.91.38,3.28-.38,4.99-.91s3.41-1.08,4.99-1.81c-.08.52.45.42.45.45.16.59.45,1.29.45,1.36.04,1.28-.99,2.1,0,4.31,2.99,6.68,16.54,6,18.59-1.36.78-2.79-.43-1.9-.45-2.04-.24-1.39-.68-.62-.91-1.36-.04-.12,0-.32,0-.45,0-.08,1.26-.41.91-1.36,2.08.83,6.81,2.02,9.07,2.27Z"/>
          <g>
            <path class="st44" d="M1066.81,409.89c-2.39,2.31-.78,2.9,1.36,4.53-1.15.54-3.29,4.81-2.72,5.67.26.38,7.5,4.04,8.16,4.31.35.95-.9,1.28-.91,1.36-5.24-4.72-9.56-4.01-14.51.68l14.51-.23c.22.74.67-.03.91,1.36-.22-.22-1.22.06-.91.68.4.81,1.33-.26.91-.68.02.14,1.23-.75.45,2.04-2.05,7.36-15.6,8.04-18.59,1.36-.99-2.21.04-3.03,0-4.31l3.17-2.49-3.63,1.13s-.54.07-.45-.45c.92-.43,8.41-4.75,8.61-5.21.1-.22.89-4.52.91-4.76.4-6.07-4.14-4.39-8.16-4.53,1.15-2.15,4.4-2.81,6.57-2.27,1.73.43.98,1.24,4.31,1.81Z"/>
            <g>
              <path class="st42" d="M1072.7,425.75c0,.13-.04.34,0,.45l-14.51.23c4.95-4.69,9.27-5.4,14.51-.68Z"/>
              <path class="st16" d="M1070.89,429.38c-2.12,6.56-12.03,5.04-11.79-.45l11.79.45Z"/>
              <path class="st42" d="M1070.89,429.38l-11.79-.45c.02-.5-.91-.58.23-1.36h11.79c1.24.88.05.97-.23,1.81Z"/>
              <path class="st22" d="M1055.48,426.66c0-.07-.3-.77-.45-1.36l3.63-1.13-3.17,2.49Z"/>
              <path class="st37" d="M1056.61,427.57l1.59.68c-.96.59-3.1.82-1.59-.68Z"/>
              <path class="st17" d="M1064.32,418.05c.36.17.38,1.5,0,1.81-.6.5-.48-2.04,0-1.81Z"/>
              <path class="st17" d="M1073.61,427.57c.43.42-.5,1.49-.91.68-.31-.62.68-.9.91-.68Z"/>
            </g>
          </g>
          <path class="st32" d="M1085.4,450.23c2.06.97,4.24,4.8,6.8,3.63-4.05,7.87-1.69,30.34-1.81,39.89-1.35-.04-2.73.03-4.08,0l-.91-.45c-1.51-9.26-4.17-18.37-3.63-27.88.08-1.36,1.96-13.84,2.27-14.51.38-.82,1.32-.61,1.36-.68Z"/>
          <path class="st49" d="M1085.4,450.23c-.04.07-.98-.14-1.36.68-.31.67-2.19,13.14-2.27,14.51-.55,9.51,2.11,18.62,3.63,27.88-.31,1.09-.99.84-1.81.91-1.19-1.25-6.1.44-6.8-1.13-.48-1.08-.67-21.18-.45-23.57.73-8.08,4.57-15.6,6.57-23.34,1.56,2.12,3.64,2.07,2.49,4.08Z"/>
          <path class="st20" d="M1090.38,493.75c.12-9.55-2.23-32.02,1.81-39.89.92-1.79,3.98-2.94,4.99-4.99.35,5.54-1.42,11.4-1.36,17,.1,8.95,2.77,17.95,4.08,26.74-.58,1.19-8.12,1.18-9.52,1.13Z"/>
          <path class="st43" d="M1089.93,427.57l-.45,1.36c-2.77.55-1.77.27-4.08-.45-.97-.3-1.12.11-2.27-.91,2.06.26,4.87-.36,6.8,0Z"/>
          <path class="st21" d="M1089.48,428.93l.45-1.36c.6.11,1.46-.37,1.36.68-.75,1.53-1.72.66-1.81.68Z"/>
        </g>
        <path class="st45" d="M1049.59,426.66c-1.7.53-3.07,1.29-4.99.91-.45-.24-1.17-.36-1.36-.91,1.92.28,4.35-.2,6.35,0Z"/>
        <g>
          <path class="st19" d="M997,414.42c-.7.4-2.38,4.25-2.27,4.76.16.73,7.42,4.29,8.61,4.76l-.91,1.36c-.31-.32-7.49-4.09-7.93-4.08-.51.01-8.14,4.43-8.39,5.44-.09.36.22.93-.45.91-.19-.09-.71.09-.91,0l.45-3.17c5.08-2.11,10.45-3.98,8.39-10.43-2.19-.06-4.39.09-6.57,0,2-1.8,8.07-1.08,9.97.45Z"/>
          <path class="st1" d="M1028.73,413.52c0,.15.01.3,0,.45-.1,1.39-1.91,5.32-1.81,5.67.15.52,8.68,4.92,9.52,5.21-.51.7-.63,1.5-.91,2.27h-.91c.48-.95.97-.92-.23-1.81-.33-.24-6.85-3.58-7.25-3.63-.78-.08-8.05,3.69-8.84,4.99-.15,0-.3.01-.45,0l-.91-.45c.07-.21-.04-.62,0-.91.92-.35,8.86-5.14,9.07-5.67.08-.21-.59-2.18.45-4.31.47-.96.96-1.86,2.27-1.81Z"/>
          <path class="st29" d="M1043.24,426.66c.19.55.91.67,1.36.91,2.68,1.41,4.7,1,6.57,1.81,3.24,1.41,18.23,22.39,17.45,25.61-.11.44-6.58,5.6-7.03,5.67-2.48.39-5.44-3.84-7.03-1.59-.61.87-3.06,16.56-3.17,18.59-.3,5.47.6,10.86.45,16.32.33.46,4.93.19,5.89.23-3.11,2.53-5.27-.48-5.67,4.53h-32.41c-.64-7.58-4.44-17.19-4.99-25.61-.25-3.8,1.07-17.62.45-19.49-.17-.5-2.41-2.02-3.17-2.04.19-.59-.5-1.9.68-1.81l9.07,9.52c.84.1,7.77-6.44,7.93-7.03,1.08-3.92-7.06-14.08-8.61-17.91,4.2,2.21,11.71.76,14.51-3.4.56-.84,2.45-3.32,0-3.4.06-.12-.05-.31,0-.45.28-.77.4-1.57.91-2.27.87.3,6,1.7,6.8,1.81Z"/>
          <path class="st32" d="M1013.32,426.21c1.31,1.97,3.61,3.94,5.44,5.44.46.37,1.97,2.56,2.27,2.72,1.55,3.82,9.7,13.99,8.61,17.91-.16.59-7.1,7.13-7.93,7.03l-9.07-9.52c-1.18-.08-.49,1.22-.68,1.81-.23.73-.28,1.56-.45,2.27-4.06-6.38-7.46-13.84-13.15-19.04,2.75-.62,5.39-6.23,4.53-8.61-.08-.22-.38-.83-.45-.91l.91-1.36c2.55,1.01,7.6,2.55,9.97,2.27Z"/>
          <path class="st24" d="M998.36,434.82c-3.66-3.34-8.19-5.24-12.69-7.25.68.02.37-.55.45-.91l16.77-.45c.86,2.38-1.78,7.99-4.53,8.61Z"/>
          <path class="st42" d="M1002.44,425.3c.07.08.37.69.45.91l-16.77.45c.24-1.01,7.87-5.43,8.39-5.44.45-.01,7.62,3.76,7.93,4.08Z"/>
          <path class="st42" d="M1034.63,427.11c-5.51,0-10.82-.11-16.32-.45.79-1.3,8.06-5.07,8.84-4.99.4.04,6.93,3.38,7.25,3.63,1.2.89.71.87.23,1.81Z"/>
          <path class="st26" d="M1021.03,434.37c-.3-.16-1.81-2.35-2.27-2.72,5.8,2.67,13.69,2.3,16.77-4.08,2.45.08.56,2.56,0,3.4-2.79,4.16-10.31,5.61-14.51,3.4Z"/>
          <g>
            <path class="st54" d="M1016.95,425.3c-.04.29.07.7,0,.91-.16.47-.96.53.23,1.36.39-.13.62-.91.68-.91.15.01.3,0,.45,0,5.5.34,10.81.45,16.32.45h.91c-.05.14.06.34,0,.45-3.08,6.38-10.97,6.75-16.77,4.08-1.83-1.5-4.13-3.47-5.44-5.44.65-.08,3.03-.68,3.63-.91Z"/>
            <path class="st42" d="M1017.85,426.66c-.06,0-.29.78-.68.91-1.19-.83-.39-.89-.23-1.36l.91.45Z"/>
            <path class="st42" d="M1018.08,428.02l15.64.68c-3.46-.5-12.45,1.64-15.19.68-.34-.12-1.08-1.05-.45-1.36Z"/>
          </g>
        </g>
      </g>
    </g>
  </g>
</svg>